<?xml version="1.0" standalone="no"?>
<!DOCTYPE svg PUBLIC "-//W3C//DTD SVG 1.1//EN" "http://www.w3.org/Graphics/SVG/1.1/DTD/svg11.dtd" >
<svg xmlns="http://www.w3.org/2000/svg">
<metadata></metadata>
<defs>
<font id="fucking_tag_fontregular" horiz-adv-x="1014" >
<font-face units-per-em="2048" ascent="1638" descent="-410" />
<missing-glyph horiz-adv-x="508" />
<glyph horiz-adv-x="2048" />
<glyph horiz-adv-x="2048" />
<glyph unicode="&#xd;" horiz-adv-x="508" />
<glyph unicode=" "  horiz-adv-x="508" />
<glyph unicode="&#x09;" horiz-adv-x="508" />
<glyph unicode="&#xa0;" horiz-adv-x="508" />
<glyph unicode="!" horiz-adv-x="1981" d="M0 564q23 212 36 212q143 128 324 128q114 0 284 -68l64 -8l-112 180l108 168l36 -92q136 -315 600 -520q282 -124 324 -172v-8l-128 -188h-4q-123 84 -288 156q-305 104 -488 104h-12q-261 0 -488 -252q-29 -24 -80 -92h-4l8 240q255 244 388 264q-76 80 -212 80h-16 q-181 0 -324 -116q0 -16 -12 -16h-4zM1604 168q101 180 116 192q36 -26 40 -36l-116 -188h-8q-32 19 -32 32zM1684 100v4l120 180h4q28 -17 28 -24v-4q-106 -172 -120 -184q-23 13 -32 28zM1760 36q118 184 124 184l40 -36v-8l-116 -176h-4z" />
<glyph unicode="&#x22;" horiz-adv-x="672" d="M101 1500q0 37 20.5 57t59.5 20t60.5 -19.5t21.5 -56.5q0 -8 -4 -34l-62 -359h-30l-62 359q-4 23 -4 33zM413 1500q0 37 20.5 57t59.5 20t60.5 -19.5t21.5 -56.5q0 -8 -4 -34l-62 -359h-30l-62 359q-4 23 -4 33z" />
<glyph unicode="#" horiz-adv-x="1336" d="M117 472l30 98h271l86 290h-295l29 97h295l140 477h93l-141 -477h242l142 477h92l-141 -477h259l-29 -97h-259l-83 -290h279l-30 -98h-280l-140 -472h-92l139 472h-240l-142 -472h-92l140 472h-273zM511 569h242l86 290h-243z" />
<glyph unicode="$" d="M113 1079q0 166 125 271q105 88 266 102v100h73v-102q68 -8 141 -35q10 -6 19 -6q25 0 41 45h50l103 -282h-49q-60 134 -168 179q-74 30 -137 39v-540q241 -93 322.5 -183t81.5 -264q0 -197 -119.5 -300t-284.5 -120v-239h-73v237q-188 3 -266 38q-10 6 -19 6 q-25 0 -41 -45h-50v331h49q50 -183 152.5 -226t174.5 -43v635q-214 67 -299 153q-92 91 -92 249zM219 1139q0 -98 55 -153q52 -54 230 -113v520q-119 -5 -199 -72q-86 -73 -86 -182zM577 45q125 17 211.5 96t86.5 219q0 116 -69 183q-62 59 -229 112v-610z" />
<glyph unicode="%" horiz-adv-x="1610" d="M62 1080q0 100 52 190.5t144.5 139.5t190.5 49t190.5 -49t144.5 -139.5t52 -190.5q0 -99 -50.5 -188.5t-143 -140t-193.5 -50.5q-100 0 -192.5 50.5t-143.5 140t-51 188.5zM202 1128q0 -31 4 -62q13 -92 55.5 -173.5t106.5 -124.5q57 -40 114 -40q7 0 13 1q63 3 115 53 t73 136q13 54 13 111q0 32 -4 65q-12 93 -56 175.5t-107 124.5q-58 38 -115 38h-11q-61 -3 -113 -52t-73 -135q-15 -58 -15 -117zM297 -29l940 1461h84l-938 -1461h-86zM774 359q0 99 52 189.5t144.5 140t190.5 49.5q97 0 190 -49.5t145 -140t52 -189.5q0 -100 -50.5 -189.5 t-143 -139.5t-193.5 -50t-193 50t-143 139.5t-51 189.5zM914 406q0 -31 4 -62q13 -92 55.5 -173.5t106.5 -124.5q59 -39 116 -39h11q63 3 115 53t73 136q13 54 13 111q0 32 -4 65q-12 93 -56 175.5t-107 124.5q-58 38 -115 38h-11q-61 -3 -113 -52t-73 -135 q-15 -58 -15 -117z" />
<glyph unicode="&#x26;" horiz-adv-x="1683" d="M152 520q0 161 76 266.5t225 151.5q-42 61 -62.5 116t-20.5 111q0 105 77 197t182 92q68 0 142 -39q9 -6 18 -6q23 0 38 45h46l96 -281h-46q-55 133 -155 178q-85 37 -141 37q-65 0 -106 -45.5t-41 -117.5q0 -131 102 -267l531 -670q98 146 121 244q17 78 17 130 q0 97 -62 97h-90v50h443v-50h-90q-95 0 -145 -227q-31 -132 -155 -292q109 -136 248 -136h16q143 17 192 128l49 -1l-103 -231h-160q-56 0 -139 25t-167 132q-67 -74 -175 -123.5t-241 -49.5q-229 0 -374.5 150.5t-145.5 385.5zM256 589q0 -91 35.5 -181.5t101.5 -164.5 q72 -83 165 -127t194 -44q88 0 169 33.5t130 90.5l-554 683q-118 0 -179.5 -86t-61.5 -204z" />
<glyph unicode="'" horiz-adv-x="346" d="M101 1500q0 37 20.5 57t59.5 20t60.5 -19.5t21.5 -56.5q0 -8 -4 -34l-62 -359h-30l-62 359q-4 23 -4 33z" />
<glyph unicode="(" horiz-adv-x="758" d="M252 601q2 277 99.5 530t268.5 442h80q-172 -242 -230 -438q-57 -193 -57 -523v-22q0 -330 57 -522q58 -196 230 -438h-80q-171 189 -268.5 441.5t-99.5 529.5z" />
<glyph unicode=")" horiz-adv-x="758" d="M58 -370q172 242 230 438q57 192 57 522v22q0 330 -57 523q-58 196 -230 438h80q171 -189 268.5 -442t99.5 -530q-2 -277 -99.5 -529.5t-268.5 -441.5h-80z" />
<glyph unicode="*" horiz-adv-x="1024" d="M218 1333q0 17 6 36q11 35 36 53q17 12 34 12q9 0 18 -3q20 -6 74 -62q47 -49 112 -75q-4 71 -37 130q-37 66 -37 84q0 32 23.5 51.5t62.5 19.5q37 0 61.5 -18t24.5 -47q0 -21 -36 -89q-33 -61 -37 -130q66 25 113 75q51 55 69 61q11 3 21 3q18 0 35 -10q26 -17 38 -53 q6 -19 6 -36q0 -15 -4 -28q-10 -30 -38 -38q-6 -2 -19 -2q-25 0 -76 9q-28 5 -55 5q-41 0 -81 -11q44 -55 105 -83q68 -32 79 -47q13 -18 13 -38q0 -9 -2 -17q-8 -30 -39 -53q-29 -22 -59 -22q-1 0 -1 1q-31 0 -48 23q-12 17 -22 94q-10 67 -47 125q-38 -58 -46 -124 q-9 -75 -20 -90q-19 -25 -49 -27h-5q-28 0 -57 21q-30 21 -39 51q-4 10 -4 20q0 17 11 32q13 17 83 51q61 29 105 82q-41 11 -80 11q-27 0 -53 -5q-54 -11 -78 -11q-9 0 -14 2q-30 9 -41 38q-6 13 -6 29z" />
<glyph unicode="+" d="M87 647v140h350v369l1 1h139v-370h349l1 -1v-139h-350v-370h-140v370h-350z" />
<glyph unicode="," horiz-adv-x="557" d="M119 91v42l119 125q44 0 88.5 -65.5t44.5 -151.5q0 -109 -71 -226.5t-139 -117.5v43q73 43 87 190q0 119 -129 161z" />
<glyph unicode="-" horiz-adv-x="670" d="M116 437v83q0 29 41 29h356q41 0 41 -29v-83q0 -28 -40 -28h-358q-40 0 -40 28z" />
<glyph unicode="." horiz-adv-x="557" d="M129 136q0 15 16 31l82 84q15 14 29 14q13 0 31 -16l80 -86q12 -16 12 -29q0 -15 -14 -31l-80 -88q-20 -20 -29 -20q-16 0 -29 14l-88 101q-10 13 -10 26z" />
<glyph unicode="/" horiz-adv-x="569" d="M13 -50l541 1484h80l-541 -1484h-80z" />
<glyph unicode="0" d="M77 717q0 194 57.5 372t160.5 274t212 96q108 0 211 -96t161 -274t58 -372t-56.5 -370t-159 -274t-214.5 -98t-214.5 98t-159 274t-56.5 370zM232 814q0 -62 5 -125q14 -180 61.5 -340t118.5 -244q65 -78 129 -78q6 0 12 1q70 7 127.5 104.5t81.5 265.5q15 107 15 220 q0 62 -5 126q-14 181 -62.5 343t-119.5 244q-65 76 -128 76q-6 0 -11 -1q-68 -7 -126 -102.5t-82 -264.5q-16 -110 -16 -225z" />
<glyph unicode="1" d="M-1738 132l6 4h104l5 -4v-19q0 -111 29 -221h3q39 99 57 125q101 -36 113 -36q36 312 78 463q32 112 51 149l117 -7l-59 -136q-81 -232 -81 -401q-7 -102 -13 -368l-2 -2h-2l-38 4h-5q-21 0 -72 -17h-2v3l4 19q-3 38 -53 112q-16 -70 -36 -70l-106 -17q-47 83 -73 234 q-25 123 -25 185zM-1438 -393q0 5 114 6v-2l15 -72q0 -4 -110 -9l-2 -2l-3 2l3 3v2q0 15 -17 72zM-1383 2405v2q0 6 136 51q144 45 225 45h36q99 0 125 -94q9 -28 9 -65q0 -167 -153 -411q-83 -101 -176 -101q-63 4 -70 14q164 75 240 255q46 158 46 253v47q0 76 -46 76 q-110 -13 -136 -36l-7 -208v-59q0 -78 15 -139l-6 -4l-100 -4q-4 19 -19 359l-24 -11zM-1266 132l6 4h104l4 -4v-19q0 -111 30 -221h2q39 99 58 125q101 -36 112 -36q36 312 79 463q32 112 51 149l117 -7l-60 -136q-81 -232 -81 -401q-6 -102 -12 -368l-2 -2h-3l-38 4h-4 q-21 0 -72 -17h-2v3l4 19q-4 38 -53 112q-17 -70 -36 -70l-107 -17q-46 83 -72 234q-25 123 -25 185zM-1243 1987l2 2h2l109 2h2l6 -7v-38l-4 -6l-68 -2h-40l-7 6v32zM-1128 1339l6 4h104l5 -4v-20q0 -110 29 -221h2q39 100 58 126q101 -36 112 -36q42 355 87 493l9 25 q-80 27 -115 89q-27 66 -27 158v48q0 233 89 502q45 8 68 8h2q20 0 25 -36q68 -298 68 -367q0 -50 -195 -75v-12q0 -152 49 -251h2q76 206 83 206l61 -2h5l4 -4q-19 -49 -77 -170l13 -2l96 -5l-60 -136q-80 -233 -80 -401q-7 -102 -13 -368l-2 -2h-2l-39 4h-4q-21 0 -72 -17 h-2v2l4 20q-4 38 -53 112q-17 -70 -36 -70l-106 -17q-47 83 -73 234q-25 123 -25 185zM-967 -393q0 5 115 6v-2l15 -72q0 -4 -111 -9l-2 -2l-2 2l2 3v2q0 15 -17 72zM-829 814q0 5 115 6v-2l15 -72q0 -4 -111 -9l-2 -2l-2 2l2 2v3q0 15 -17 72zM-797 2065q121 30 121 51 q-16 166 -36 234l-15 38q-10 -12 -34 -112q-36 -129 -36 -211zM-795 132l7 4h104l4 -4v-19q0 -111 30 -221h2q39 99 57 125q101 -36 113 -36q36 312 79 463q31 112 51 149l116 -7l-59 -136q-81 -232 -81 -401q-6 -102 -13 -368l-2 -2h-2l-38 4h-4q-22 0 -73 -17h-2v3l5 19 q-4 38 -54 112q-16 -70 -36 -70l-106 -17q-47 83 -72 234q-26 123 -26 185zM-657 616q45 257 49 300h-2l-42 4v4q49 0 49 15q29 156 53 363l-2 15h2l38 -6v2l-9 53l3 2h2l110 -4l9 -4q-17 -164 -17 -287q0 -170 40 -280v-3l-79 -8q-8 25 -21 117l-42 4h-13 q-43 -197 -43 -278v-15l-4 -4q-74 0 -81 10zM-584 2103q0 6 125 17q23 -68 179 -252q57 -58 157 -117q79 -47 87 -47q12 0 40 174v2q0 106 -127 209q-189 110 -364 206l-4 17q0 26 77 117l138 276q129 -11 129 -24q-8 -63 -8 -102v-8q0 -107 57 -255l-2 -2h-106 q-19 0 -51 200h-4q-100 -176 -100 -200q0 -19 189 -115q141 -81 200 -127q80 -79 80 -240q0 -126 -63 -168h-7q-186 0 -267 74q-39 15 -179 153q-108 116 -176 212zM-523 939h2l43 4l-11 132h-2zM-495 -393q0 5 115 6v-2l15 -72q0 -4 -111 -9l-2 -2l-2 2l2 3v2q0 15 -17 72z M-446 752l2 2h2l94 -2l10 -38l-2 -2h-2l-72 -2h-7l-10 -2zM-270 -544q6 17 49 53h4q17 0 53 -53v-4q-40 -55 -55 -55q-10 0 -51 55v4zM-263 982q0 5 125 17q23 -68 178 -253q58 -58 158 -117q79 -47 87 -47q12 0 40 174v3q0 105 -127 208q-189 110 -364 206l-4 17 q0 26 77 117l138 276q129 -11 129 -23q-8 -64 -8 -102v-9q0 -107 57 -255l-2 -2h-106q-19 0 -51 200h-5q-99 -176 -99 -200q0 -18 189 -115q141 -80 199 -127q81 -79 81 -240q0 -66 -21 -119h2l62 -5l-60 -136q-81 -232 -81 -401q-6 -102 -12 -368l-2 -2h-3l-38 4h-4 q-21 0 -72 -17h-2v3l4 19q-4 38 -53 112q-17 -70 -36 -70l-107 -17q-46 83 -72 234q-25 123 -25 185l6 4h104l4 -4v-19q0 -111 30 -221h2q39 99 58 125q101 -36 112 -36q46 387 92 501l17 60h-3q-160 0 -272 95q-162 131 -280 287zM108 2486l2 2l75 -2h42q7 0 60 -298 l38 -240l-2 -2l-85 -2h-30l-6 6q-15 258 -28 258q-13 66 -66 278zM208 -393q0 5 115 6v-2l15 -72q0 -4 -111 -9l-2 -2l-2 2l2 3v2q0 15 -17 72zM217 1851v44l4 4h106q13 -8 13 -76l-2 -2h-2l-109 2h-4q-6 0 -6 28zM329 2318v47q0 176 90 336q27 42 106 42h40q81 0 81 -19 l125 -181q0 -6 -114 -12l-117 148q-111 -204 -111 -352v-26q0 -162 187 -442q27 -37 43 -49q44 314 44 412v28l2 2v2q117 -21 143 -29v-3l-24 -163q0 -110 49 -208l-2 -2h-81q-5 -6 -19 -81q-9 -41 -38 -41q-42 -10 -68 -10h-11q-48 0 -119 98q-65 74 -123 184 q-83 173 -83 319zM380 -591q45 257 49 300h-2l-42 4v4q48 0 48 15q30 156 54 364l-3 15h3l38 -7v2l-9 53l2 3h3l110 -5l9 -4q-17 -163 -17 -287q0 -169 40 -280v-2l-79 -9q-8 25 -21 117l-42 4h-13q-43 -197 -43 -278v-15l-4 -4q-74 0 -81 10zM438 982q0 5 125 17 q23 -68 179 -253q57 -58 157 -117q79 -47 87 -47q12 0 40 174v3q0 105 -127 208q-189 110 -364 206l-4 17q0 26 77 117l138 276q129 -11 129 -23q-8 -64 -8 -102v-9q0 -107 57 -255l-2 -2h-106q-19 0 -51 200h-4q-100 -176 -100 -200q0 -18 189 -115q141 -80 200 -127 q80 -79 80 -240q0 -126 -63 -168h-7q-186 0 -267 74q-39 15 -179 153q-108 116 -176 213zM514 -268h2l43 5l-11 131h-2zM591 -455l2 2h2l93 -2l11 -38l-2 -2h-2l-72 -2h-7l-10 -2zM773 -225q0 5 126 17q23 -68 178 -253q58 -58 157 -117q80 -47 88 -47q11 0 40 175v2 q0 106 -128 208q-188 110 -363 206l-4 17q0 26 76 117l138 276q130 -11 130 -23q-8 -64 -8 -102v-9q0 -107 57 -255l-2 -2h-106q-19 0 -51 200h-5q-100 -176 -100 -200q0 -18 190 -115q140 -80 199 -127q81 -79 81 -240q0 -126 -64 -168h-6q-187 0 -268 74q-38 15 -178 153 q-109 117 -177 213zM858 2023q11 32 11 46v9q0 7 28 8h19q57 0 57 -10v-51l-2 -2v-2l-79 -3h-10l-22 -2zM860 2263q3 231 15 231h2l107 3l123 -200h2v44q0 108 72 238h92q4 0 4 -6q-51 -155 -51 -261q0 -78 53 -183l-144 -36q-119 200 -156 253q-5 -206 -8 -206h-4l-100 2 l-2 2zM1005 1802v10q0 22 244 43q0 3 45 6q-9 41 -9 92v48q0 233 90 502q45 8 68 8h2q20 0 25 -36q66 -292 66 -344h2l155 15v2l-8 157l-77 -8l-51 4v4l126 15l-11 92l2 2l79 -9l44 7l3 -3l-5 -76q174 23 247 23h8q45 0 45 -27v-2q0 -42 -130 -111q0 -4 -51 -32v-2h5 q156 26 210 26q34 -5 34 -28v-2q0 -28 -85 -211q-77 -199 -77 -261q0 -16 7 -17l36 7l6 -9q0 -51 -97 -51l-30 2v-2q-68 -128 -128 -327q-44 -146 -44 -406q0 -114 19 -251l-2 -2h-111l-6 7l-4 146v66q0 281 68 478q-85 -135 -92 -193h-104l-57 74v-2l27 -217q-1 -21 -6 -21 l-106 4l-4 7q-15 331 -28 374l2 2l119 -5q44 -53 98 -104l138 221q0 35 -151 75q-313 107 -510 199q-36 28 -36 41zM1130 1364l2 2l75 -2h42q7 0 60 -297l38 -240l-2 -3l-85 -2h-30l-6 7q-15 257 -28 257q-13 66 -66 278zM1152 1800q12 -31 89 -81q92 -53 191 -89 q68 -22 312 -79q50 82 79 119q62 11 62 15q20 175 51 210q104 229 104 262q0 14 -39 14h-97q-17 0 -117 -55l4 -125q83 -37 111 -64v-2q0 -17 -94 -17h-2l-4 -4l6 -41q-13 -4 -102 -12l-2 2v40q-206 -27 -206 -32q-69 -155 -72 -155q-81 30 -113 89l-13 37q-85 -15 -148 -32 zM1239 729v44l4 5h106q13 -9 13 -77l-2 -2h-2l-109 2h-4q-6 0 -6 28zM1343 2021q4 -138 17 -149q78 9 78 15q33 89 39 89l61 -2h5l4 -4l-30 -73l185 32v28q-83 63 -179 123q-35 -22 -123 -38l-57 -9v-12zM1347 2065q121 29 121 53l-2 2v3l2 2q-19 172 -40 238l-11 25 q-10 -12 -34 -112q-36 -129 -36 -211zM1364 1842q11 -36 28 -72h2l30 83zM1475 -225q0 5 125 17q23 -68 178 -253q58 -58 158 -117q79 -47 87 -47q12 0 40 175v2q0 106 -127 208q-189 110 -364 206l-4 17q0 26 77 117l138 276q129 -11 129 -23q-8 -64 -8 -102v-9 q0 -107 57 -255l-2 -2h-106q-19 0 -51 200h-5q-99 -176 -99 -200q0 -18 189 -115q141 -80 199 -127q81 -79 81 -240q0 -126 -64 -168h-6q-187 0 -268 74q-38 15 -178 153q-109 117 -176 213zM1551 2106l140 -66v25q0 34 -8 34q-43 0 -130 9h-2v-2zM1783 2182h2 q63 35 165 136v4l3 2l-3 3l-12 2h-7q-58 0 -144 -11zM1838 1173q32 25 32 74q19 91 40 126h13q83 0 83 -9v-2l-17 -83h2q28 19 59 19h9q86 0 123 -59l2 -13q0 -106 -64 -506q-11 -8 -19 -8q-19 0 -102 51zM1961 1143l74 -195h3q27 212 27 293v10l-4 5q-27 -19 -47 -51 q-10 -28 -17 -28l-30 15zM2167 157l2 2l75 -2h42q7 0 60 -297l38 -240l-2 -2l-85 -3h-30l-6 7q-15 257 -28 257q-13 66 -66 278zM2276 -433l4 4h106q13 -9 13 -77l-2 -2h-2l-109 2h-4q-6 0 -6 28v45zM2382 166l2 2l119 -4q44 -54 98 -104q181 291 259 403l125 26l2 -2v-3 q-199 -368 -199 -733v-55q0 -113 19 -251l-2 -2h-111l-6 7l-5 146v66q0 281 68 478q-84 -135 -91 -193h-104l-57 74v-2l27 -217q-1 -21 -6 -21l-106 4l-5 7q-14 331 -27 374zM2875 -34q32 25 32 74q19 91 40 126h13q83 0 83 -9v-2l-17 -83h2q28 19 59 19h9q86 0 123 -59 l2 -13q0 -105 -64 -506q-11 -8 -19 -8q-19 0 -102 51zM2998 -64l74 -195h2q28 212 28 293v11l-4 4q-27 -19 -47 -51q-11 -28 -17 -28l-30 15z" />
<glyph unicode="2" d="M-1738 132l6 4h104l5 -4v-19q0 -111 29 -221h3q39 99 57 125q101 -36 113 -36q36 312 78 463q32 112 51 149l117 -7l-59 -136q-81 -232 -81 -401q-7 -102 -13 -368l-2 -2h-2l-38 4h-5q-21 0 -72 -17h-2v3l4 19q-3 38 -53 112q-16 -70 -36 -70l-106 -17q-47 83 -73 234 q-25 123 -25 185zM-1438 -393q0 5 114 6v-2l15 -72q0 -4 -110 -9l-2 -2l-3 2l3 3v2q0 15 -17 72zM-1383 2405v2q0 6 136 51q144 45 225 45h36q99 0 125 -94q9 -28 9 -65q0 -167 -153 -411q-83 -101 -176 -101q-63 4 -70 14q164 75 240 255q46 158 46 253v47q0 76 -46 76 q-110 -13 -136 -36l-7 -208v-59q0 -78 15 -139l-6 -4l-100 -4q-4 19 -19 359l-24 -11zM-1266 132l6 4h104l4 -4v-19q0 -111 30 -221h2q39 99 58 125q101 -36 112 -36q36 312 79 463q32 112 51 149l117 -7l-60 -136q-81 -232 -81 -401q-6 -102 -12 -368l-2 -2h-3l-38 4h-4 q-21 0 -72 -17h-2v3l4 19q-4 38 -53 112q-17 -70 -36 -70l-107 -17q-46 83 -72 234q-25 123 -25 185zM-1243 1987l2 2h2l109 2h2l6 -7v-38l-4 -6l-68 -2h-40l-7 6v32zM-1128 1339l6 4h104l5 -4v-20q0 -110 29 -221h2q39 100 58 126q101 -36 112 -36q42 355 87 493l9 25 q-80 27 -115 89q-27 66 -27 158v48q0 233 89 502q45 8 68 8h2q20 0 25 -36q68 -298 68 -367q0 -50 -195 -75v-12q0 -152 49 -251h2q76 206 83 206l61 -2h5l4 -4q-19 -49 -77 -170l13 -2l96 -5l-60 -136q-80 -233 -80 -401q-7 -102 -13 -368l-2 -2h-2l-39 4h-4q-21 0 -72 -17 h-2v2l4 20q-4 38 -53 112q-17 -70 -36 -70l-106 -17q-47 83 -73 234q-25 123 -25 185zM-967 -393q0 5 115 6v-2l15 -72q0 -4 -111 -9l-2 -2l-2 2l2 3v2q0 15 -17 72zM-829 814q0 5 115 6v-2l15 -72q0 -4 -111 -9l-2 -2l-2 2l2 2v3q0 15 -17 72zM-797 2065q121 30 121 51 q-16 166 -36 234l-15 38q-10 -12 -34 -112q-36 -129 -36 -211zM-795 132l7 4h104l4 -4v-19q0 -111 30 -221h2q39 99 57 125q101 -36 113 -36q36 312 79 463q31 112 51 149l116 -7l-59 -136q-81 -232 -81 -401q-6 -102 -13 -368l-2 -2h-2l-38 4h-4q-22 0 -73 -17h-2v3l5 19 q-4 38 -54 112q-16 -70 -36 -70l-106 -17q-47 83 -72 234q-26 123 -26 185zM-657 616q45 257 49 300h-2l-42 4v4q49 0 49 15q29 156 53 363l-2 15h2l38 -6v2l-9 53l3 2h2l110 -4l9 -4q-17 -164 -17 -287q0 -170 40 -280v-3l-79 -8q-8 25 -21 117l-42 4h-13 q-43 -197 -43 -278v-15l-4 -4q-74 0 -81 10zM-584 2103q0 6 125 17q23 -68 179 -252q57 -58 157 -117q79 -47 87 -47q12 0 40 174v2q0 106 -127 209q-189 110 -364 206l-4 17q0 26 77 117l138 276q129 -11 129 -24q-8 -63 -8 -102v-8q0 -107 57 -255l-2 -2h-106 q-19 0 -51 200h-4q-100 -176 -100 -200q0 -19 189 -115q141 -81 200 -127q80 -79 80 -240q0 -126 -63 -168h-7q-186 0 -267 74q-39 15 -179 153q-108 116 -176 212zM-523 939h2l43 4l-11 132h-2zM-495 -393q0 5 115 6v-2l15 -72q0 -4 -111 -9l-2 -2l-2 2l2 3v2q0 15 -17 72z M-446 752l2 2h2l94 -2l10 -38l-2 -2h-2l-72 -2h-7l-10 -2zM-270 -544q6 17 49 53h4q17 0 53 -53v-4q-40 -55 -55 -55q-10 0 -51 55v4zM-263 982q0 5 125 17q23 -68 178 -253q58 -58 158 -117q79 -47 87 -47q12 0 40 174v3q0 105 -127 208q-189 110 -364 206l-4 17 q0 26 77 117l138 276q129 -11 129 -23q-8 -64 -8 -102v-9q0 -107 57 -255l-2 -2h-106q-19 0 -51 200h-5q-99 -176 -99 -200q0 -18 189 -115q141 -80 199 -127q81 -79 81 -240q0 -66 -21 -119h2l62 -5l-60 -136q-81 -232 -81 -401q-6 -102 -12 -368l-2 -2h-3l-38 4h-4 q-21 0 -72 -17h-2v3l4 19q-4 38 -53 112q-17 -70 -36 -70l-107 -17q-46 83 -72 234q-25 123 -25 185l6 4h104l4 -4v-19q0 -111 30 -221h2q39 99 58 125q101 -36 112 -36q46 387 92 501l17 60h-3q-160 0 -272 95q-162 131 -280 287zM108 2486l2 2l75 -2h42q7 0 60 -298 l38 -240l-2 -2l-85 -2h-30l-6 6q-15 258 -28 258q-13 66 -66 278zM208 -393q0 5 115 6v-2l15 -72q0 -4 -111 -9l-2 -2l-2 2l2 3v2q0 15 -17 72zM217 1851v44l4 4h106q13 -8 13 -76l-2 -2h-2l-109 2h-4q-6 0 -6 28zM329 2318v47q0 176 90 336q27 42 106 42h40q81 0 81 -19 l125 -181q0 -6 -114 -12l-117 148q-111 -204 -111 -352v-26q0 -162 187 -442q27 -37 43 -49q44 314 44 412v28l2 2v2q117 -21 143 -29v-3l-24 -163q0 -110 49 -208l-2 -2h-81q-5 -6 -19 -81q-9 -41 -38 -41q-42 -10 -68 -10h-11q-48 0 -119 98q-65 74 -123 184 q-83 173 -83 319zM380 -591q45 257 49 300h-2l-42 4v4q48 0 48 15q30 156 54 364l-3 15h3l38 -7v2l-9 53l2 3h3l110 -5l9 -4q-17 -163 -17 -287q0 -169 40 -280v-2l-79 -9q-8 25 -21 117l-42 4h-13q-43 -197 -43 -278v-15l-4 -4q-74 0 -81 10zM438 982q0 5 125 17 q23 -68 179 -253q57 -58 157 -117q79 -47 87 -47q12 0 40 174v3q0 105 -127 208q-189 110 -364 206l-4 17q0 26 77 117l138 276q129 -11 129 -23q-8 -64 -8 -102v-9q0 -107 57 -255l-2 -2h-106q-19 0 -51 200h-4q-100 -176 -100 -200q0 -18 189 -115q141 -80 200 -127 q80 -79 80 -240q0 -126 -63 -168h-7q-186 0 -267 74q-39 15 -179 153q-108 116 -176 213zM514 -268h2l43 5l-11 131h-2zM591 -455l2 2h2l93 -2l11 -38l-2 -2h-2l-72 -2h-7l-10 -2zM773 -225q0 5 126 17q23 -68 178 -253q58 -58 157 -117q80 -47 88 -47q11 0 40 175v2 q0 106 -128 208q-188 110 -363 206l-4 17q0 26 76 117l138 276q130 -11 130 -23q-8 -64 -8 -102v-9q0 -107 57 -255l-2 -2h-106q-19 0 -51 200h-5q-100 -176 -100 -200q0 -18 190 -115q140 -80 199 -127q81 -79 81 -240q0 -126 -64 -168h-6q-187 0 -268 74q-38 15 -178 153 q-109 117 -177 213zM858 2023q11 32 11 46v9q0 7 28 8h19q57 0 57 -10v-51l-2 -2v-2l-79 -3h-10l-22 -2zM860 2263q3 231 15 231h2l107 3l123 -200h2v44q0 108 72 238h92q4 0 4 -6q-51 -155 -51 -261q0 -78 53 -183l-144 -36q-119 200 -156 253q-5 -206 -8 -206h-4l-100 2 l-2 2zM1005 1802v10q0 22 244 43q0 3 45 6q-9 41 -9 92v48q0 233 90 502q45 8 68 8h2q20 0 25 -36q66 -292 66 -344h2l155 15v2l-8 157l-77 -8l-51 4v4l126 15l-11 92l2 2l79 -9l44 7l3 -3l-5 -76q174 23 247 23h8q45 0 45 -27v-2q0 -42 -130 -111q0 -4 -51 -32v-2h5 q156 26 210 26q34 -5 34 -28v-2q0 -28 -85 -211q-77 -199 -77 -261q0 -16 7 -17l36 7l6 -9q0 -51 -97 -51l-30 2v-2q-68 -128 -128 -327q-44 -146 -44 -406q0 -114 19 -251l-2 -2h-111l-6 7l-4 146v66q0 281 68 478q-85 -135 -92 -193h-104l-57 74v-2l27 -217q-1 -21 -6 -21 l-106 4l-4 7q-15 331 -28 374l2 2l119 -5q44 -53 98 -104l138 221q0 35 -151 75q-313 107 -510 199q-36 28 -36 41zM1130 1364l2 2l75 -2h42q7 0 60 -297l38 -240l-2 -3l-85 -2h-30l-6 7q-15 257 -28 257q-13 66 -66 278zM1152 1800q12 -31 89 -81q92 -53 191 -89 q68 -22 312 -79q50 82 79 119q62 11 62 15q20 175 51 210q104 229 104 262q0 14 -39 14h-97q-17 0 -117 -55l4 -125q83 -37 111 -64v-2q0 -17 -94 -17h-2l-4 -4l6 -41q-13 -4 -102 -12l-2 2v40q-206 -27 -206 -32q-69 -155 -72 -155q-81 30 -113 89l-13 37q-85 -15 -148 -32 zM1239 729v44l4 5h106q13 -9 13 -77l-2 -2h-2l-109 2h-4q-6 0 -6 28zM1343 2021q4 -138 17 -149q78 9 78 15q33 89 39 89l61 -2h5l4 -4l-30 -73l185 32v28q-83 63 -179 123q-35 -22 -123 -38l-57 -9v-12zM1347 2065q121 29 121 53l-2 2v3l2 2q-19 172 -40 238l-11 25 q-10 -12 -34 -112q-36 -129 -36 -211zM1364 1842q11 -36 28 -72h2l30 83zM1475 -225q0 5 125 17q23 -68 178 -253q58 -58 158 -117q79 -47 87 -47q12 0 40 175v2q0 106 -127 208q-189 110 -364 206l-4 17q0 26 77 117l138 276q129 -11 129 -23q-8 -64 -8 -102v-9 q0 -107 57 -255l-2 -2h-106q-19 0 -51 200h-5q-99 -176 -99 -200q0 -18 189 -115q141 -80 199 -127q81 -79 81 -240q0 -126 -64 -168h-6q-187 0 -268 74q-38 15 -178 153q-109 117 -176 213zM1551 2106l140 -66v25q0 34 -8 34q-43 0 -130 9h-2v-2zM1783 2182h2 q63 35 165 136v4l3 2l-3 3l-12 2h-7q-58 0 -144 -11zM1838 1173q32 25 32 74q19 91 40 126h13q83 0 83 -9v-2l-17 -83h2q28 19 59 19h9q86 0 123 -59l2 -13q0 -106 -64 -506q-11 -8 -19 -8q-19 0 -102 51zM1961 1143l74 -195h3q27 212 27 293v10l-4 5q-27 -19 -47 -51 q-10 -28 -17 -28l-30 15zM2167 157l2 2l75 -2h42q7 0 60 -297l38 -240l-2 -2l-85 -3h-30l-6 7q-15 257 -28 257q-13 66 -66 278zM2276 -433l4 4h106q13 -9 13 -77l-2 -2h-2l-109 2h-4q-6 0 -6 28v45zM2382 166l2 2l119 -4q44 -54 98 -104q181 291 259 403l125 26l2 -2v-3 q-199 -368 -199 -733v-55q0 -113 19 -251l-2 -2h-111l-6 7l-5 146v66q0 281 68 478q-84 -135 -91 -193h-104l-57 74v-2l27 -217q-1 -21 -6 -21l-106 4l-5 7q-14 331 -27 374zM2875 -34q32 25 32 74q19 91 40 126h13q83 0 83 -9v-2l-17 -83h2q28 19 59 19h9q86 0 123 -59 l2 -13q0 -105 -64 -506q-11 -8 -19 -8q-19 0 -102 51zM2998 -64l74 -195h2q28 212 28 293v11l-4 4q-27 -19 -47 -51q-11 -28 -17 -28l-30 15z" />
<glyph unicode="3" d="M-1738 132l6 4h104l5 -4v-19q0 -111 29 -221h3q39 99 57 125q101 -36 113 -36q36 312 78 463q32 112 51 149l117 -7l-59 -136q-81 -232 -81 -401q-7 -102 -13 -368l-2 -2h-2l-38 4h-5q-21 0 -72 -17h-2v3l4 19q-3 38 -53 112q-16 -70 -36 -70l-106 -17q-47 83 -73 234 q-25 123 -25 185zM-1438 -393q0 5 114 6v-2l15 -72q0 -4 -110 -9l-2 -2l-3 2l3 3v2q0 15 -17 72zM-1383 2405v2q0 6 136 51q144 45 225 45h36q99 0 125 -94q9 -28 9 -65q0 -167 -153 -411q-83 -101 -176 -101q-63 4 -70 14q164 75 240 255q46 158 46 253v47q0 76 -46 76 q-110 -13 -136 -36l-7 -208v-59q0 -78 15 -139l-6 -4l-100 -4q-4 19 -19 359l-24 -11zM-1266 132l6 4h104l4 -4v-19q0 -111 30 -221h2q39 99 58 125q101 -36 112 -36q36 312 79 463q32 112 51 149l117 -7l-60 -136q-81 -232 -81 -401q-6 -102 -12 -368l-2 -2h-3l-38 4h-4 q-21 0 -72 -17h-2v3l4 19q-4 38 -53 112q-17 -70 -36 -70l-107 -17q-46 83 -72 234q-25 123 -25 185zM-1243 1987l2 2h2l109 2h2l6 -7v-38l-4 -6l-68 -2h-40l-7 6v32zM-1128 1339l6 4h104l5 -4v-20q0 -110 29 -221h2q39 100 58 126q101 -36 112 -36q42 355 87 493l9 25 q-80 27 -115 89q-27 66 -27 158v48q0 233 89 502q45 8 68 8h2q20 0 25 -36q68 -298 68 -367q0 -50 -195 -75v-12q0 -152 49 -251h2q76 206 83 206l61 -2h5l4 -4q-19 -49 -77 -170l13 -2l96 -5l-60 -136q-80 -233 -80 -401q-7 -102 -13 -368l-2 -2h-2l-39 4h-4q-21 0 -72 -17 h-2v2l4 20q-4 38 -53 112q-17 -70 -36 -70l-106 -17q-47 83 -73 234q-25 123 -25 185zM-967 -393q0 5 115 6v-2l15 -72q0 -4 -111 -9l-2 -2l-2 2l2 3v2q0 15 -17 72zM-829 814q0 5 115 6v-2l15 -72q0 -4 -111 -9l-2 -2l-2 2l2 2v3q0 15 -17 72zM-797 2065q121 30 121 51 q-16 166 -36 234l-15 38q-10 -12 -34 -112q-36 -129 -36 -211zM-795 132l7 4h104l4 -4v-19q0 -111 30 -221h2q39 99 57 125q101 -36 113 -36q36 312 79 463q31 112 51 149l116 -7l-59 -136q-81 -232 -81 -401q-6 -102 -13 -368l-2 -2h-2l-38 4h-4q-22 0 -73 -17h-2v3l5 19 q-4 38 -54 112q-16 -70 -36 -70l-106 -17q-47 83 -72 234q-26 123 -26 185zM-657 616q45 257 49 300h-2l-42 4v4q49 0 49 15q29 156 53 363l-2 15h2l38 -6v2l-9 53l3 2h2l110 -4l9 -4q-17 -164 -17 -287q0 -170 40 -280v-3l-79 -8q-8 25 -21 117l-42 4h-13 q-43 -197 -43 -278v-15l-4 -4q-74 0 -81 10zM-584 2103q0 6 125 17q23 -68 179 -252q57 -58 157 -117q79 -47 87 -47q12 0 40 174v2q0 106 -127 209q-189 110 -364 206l-4 17q0 26 77 117l138 276q129 -11 129 -24q-8 -63 -8 -102v-8q0 -107 57 -255l-2 -2h-106 q-19 0 -51 200h-4q-100 -176 -100 -200q0 -19 189 -115q141 -81 200 -127q80 -79 80 -240q0 -126 -63 -168h-7q-186 0 -267 74q-39 15 -179 153q-108 116 -176 212zM-523 939h2l43 4l-11 132h-2zM-495 -393q0 5 115 6v-2l15 -72q0 -4 -111 -9l-2 -2l-2 2l2 3v2q0 15 -17 72z M-446 752l2 2h2l94 -2l10 -38l-2 -2h-2l-72 -2h-7l-10 -2zM-270 -544q6 17 49 53h4q17 0 53 -53v-4q-40 -55 -55 -55q-10 0 -51 55v4zM-263 982q0 5 125 17q23 -68 178 -253q58 -58 158 -117q79 -47 87 -47q12 0 40 174v3q0 105 -127 208q-189 110 -364 206l-4 17 q0 26 77 117l138 276q129 -11 129 -23q-8 -64 -8 -102v-9q0 -107 57 -255l-2 -2h-106q-19 0 -51 200h-5q-99 -176 -99 -200q0 -18 189 -115q141 -80 199 -127q81 -79 81 -240q0 -66 -21 -119h2l62 -5l-60 -136q-81 -232 -81 -401q-6 -102 -12 -368l-2 -2h-3l-38 4h-4 q-21 0 -72 -17h-2v3l4 19q-4 38 -53 112q-17 -70 -36 -70l-107 -17q-46 83 -72 234q-25 123 -25 185l6 4h104l4 -4v-19q0 -111 30 -221h2q39 99 58 125q101 -36 112 -36q46 387 92 501l17 60h-3q-160 0 -272 95q-162 131 -280 287zM108 2486l2 2l75 -2h42q7 0 60 -298 l38 -240l-2 -2l-85 -2h-30l-6 6q-15 258 -28 258q-13 66 -66 278zM208 -393q0 5 115 6v-2l15 -72q0 -4 -111 -9l-2 -2l-2 2l2 3v2q0 15 -17 72zM217 1851v44l4 4h106q13 -8 13 -76l-2 -2h-2l-109 2h-4q-6 0 -6 28zM329 2318v47q0 176 90 336q27 42 106 42h40q81 0 81 -19 l125 -181q0 -6 -114 -12l-117 148q-111 -204 -111 -352v-26q0 -162 187 -442q27 -37 43 -49q44 314 44 412v28l2 2v2q117 -21 143 -29v-3l-24 -163q0 -110 49 -208l-2 -2h-81q-5 -6 -19 -81q-9 -41 -38 -41q-42 -10 -68 -10h-11q-48 0 -119 98q-65 74 -123 184 q-83 173 -83 319zM380 -591q45 257 49 300h-2l-42 4v4q48 0 48 15q30 156 54 364l-3 15h3l38 -7v2l-9 53l2 3h3l110 -5l9 -4q-17 -163 -17 -287q0 -169 40 -280v-2l-79 -9q-8 25 -21 117l-42 4h-13q-43 -197 -43 -278v-15l-4 -4q-74 0 -81 10zM438 982q0 5 125 17 q23 -68 179 -253q57 -58 157 -117q79 -47 87 -47q12 0 40 174v3q0 105 -127 208q-189 110 -364 206l-4 17q0 26 77 117l138 276q129 -11 129 -23q-8 -64 -8 -102v-9q0 -107 57 -255l-2 -2h-106q-19 0 -51 200h-4q-100 -176 -100 -200q0 -18 189 -115q141 -80 200 -127 q80 -79 80 -240q0 -126 -63 -168h-7q-186 0 -267 74q-39 15 -179 153q-108 116 -176 213zM514 -268h2l43 5l-11 131h-2zM591 -455l2 2h2l93 -2l11 -38l-2 -2h-2l-72 -2h-7l-10 -2zM773 -225q0 5 126 17q23 -68 178 -253q58 -58 157 -117q80 -47 88 -47q11 0 40 175v2 q0 106 -128 208q-188 110 -363 206l-4 17q0 26 76 117l138 276q130 -11 130 -23q-8 -64 -8 -102v-9q0 -107 57 -255l-2 -2h-106q-19 0 -51 200h-5q-100 -176 -100 -200q0 -18 190 -115q140 -80 199 -127q81 -79 81 -240q0 -126 -64 -168h-6q-187 0 -268 74q-38 15 -178 153 q-109 117 -177 213zM858 2023q11 32 11 46v9q0 7 28 8h19q57 0 57 -10v-51l-2 -2v-2l-79 -3h-10l-22 -2zM860 2263q3 231 15 231h2l107 3l123 -200h2v44q0 108 72 238h92q4 0 4 -6q-51 -155 -51 -261q0 -78 53 -183l-144 -36q-119 200 -156 253q-5 -206 -8 -206h-4l-100 2 l-2 2zM1005 1802v10q0 22 244 43q0 3 45 6q-9 41 -9 92v48q0 233 90 502q45 8 68 8h2q20 0 25 -36q66 -292 66 -344h2l155 15v2l-8 157l-77 -8l-51 4v4l126 15l-11 92l2 2l79 -9l44 7l3 -3l-5 -76q174 23 247 23h8q45 0 45 -27v-2q0 -42 -130 -111q0 -4 -51 -32v-2h5 q156 26 210 26q34 -5 34 -28v-2q0 -28 -85 -211q-77 -199 -77 -261q0 -16 7 -17l36 7l6 -9q0 -51 -97 -51l-30 2v-2q-68 -128 -128 -327q-44 -146 -44 -406q0 -114 19 -251l-2 -2h-111l-6 7l-4 146v66q0 281 68 478q-85 -135 -92 -193h-104l-57 74v-2l27 -217q-1 -21 -6 -21 l-106 4l-4 7q-15 331 -28 374l2 2l119 -5q44 -53 98 -104l138 221q0 35 -151 75q-313 107 -510 199q-36 28 -36 41zM1130 1364l2 2l75 -2h42q7 0 60 -297l38 -240l-2 -3l-85 -2h-30l-6 7q-15 257 -28 257q-13 66 -66 278zM1152 1800q12 -31 89 -81q92 -53 191 -89 q68 -22 312 -79q50 82 79 119q62 11 62 15q20 175 51 210q104 229 104 262q0 14 -39 14h-97q-17 0 -117 -55l4 -125q83 -37 111 -64v-2q0 -17 -94 -17h-2l-4 -4l6 -41q-13 -4 -102 -12l-2 2v40q-206 -27 -206 -32q-69 -155 -72 -155q-81 30 -113 89l-13 37q-85 -15 -148 -32 zM1239 729v44l4 5h106q13 -9 13 -77l-2 -2h-2l-109 2h-4q-6 0 -6 28zM1343 2021q4 -138 17 -149q78 9 78 15q33 89 39 89l61 -2h5l4 -4l-30 -73l185 32v28q-83 63 -179 123q-35 -22 -123 -38l-57 -9v-12zM1347 2065q121 29 121 53l-2 2v3l2 2q-19 172 -40 238l-11 25 q-10 -12 -34 -112q-36 -129 -36 -211zM1364 1842q11 -36 28 -72h2l30 83zM1475 -225q0 5 125 17q23 -68 178 -253q58 -58 158 -117q79 -47 87 -47q12 0 40 175v2q0 106 -127 208q-189 110 -364 206l-4 17q0 26 77 117l138 276q129 -11 129 -23q-8 -64 -8 -102v-9 q0 -107 57 -255l-2 -2h-106q-19 0 -51 200h-5q-99 -176 -99 -200q0 -18 189 -115q141 -80 199 -127q81 -79 81 -240q0 -126 -64 -168h-6q-187 0 -268 74q-38 15 -178 153q-109 117 -176 213zM1551 2106l140 -66v25q0 34 -8 34q-43 0 -130 9h-2v-2zM1783 2182h2 q63 35 165 136v4l3 2l-3 3l-12 2h-7q-58 0 -144 -11zM1838 1173q32 25 32 74q19 91 40 126h13q83 0 83 -9v-2l-17 -83h2q28 19 59 19h9q86 0 123 -59l2 -13q0 -106 -64 -506q-11 -8 -19 -8q-19 0 -102 51zM1961 1143l74 -195h3q27 212 27 293v10l-4 5q-27 -19 -47 -51 q-10 -28 -17 -28l-30 15zM2167 157l2 2l75 -2h42q7 0 60 -297l38 -240l-2 -2l-85 -3h-30l-6 7q-15 257 -28 257q-13 66 -66 278zM2276 -433l4 4h106q13 -9 13 -77l-2 -2h-2l-109 2h-4q-6 0 -6 28v45zM2382 166l2 2l119 -4q44 -54 98 -104q181 291 259 403l125 26l2 -2v-3 q-199 -368 -199 -733v-55q0 -113 19 -251l-2 -2h-111l-6 7l-5 146v66q0 281 68 478q-84 -135 -91 -193h-104l-57 74v-2l27 -217q-1 -21 -6 -21l-106 4l-5 7q-14 331 -27 374zM2875 -34q32 25 32 74q19 91 40 126h13q83 0 83 -9v-2l-17 -83h2q28 19 59 19h9q86 0 123 -59 l2 -13q0 -105 -64 -506q-11 -8 -19 -8q-19 0 -102 51zM2998 -64l74 -195h2q28 212 28 293v11l-4 4q-27 -19 -47 -51q-11 -28 -17 -28l-30 15z" />
<glyph unicode="4" d="M-1738 132l6 4h104l5 -4v-19q0 -111 29 -221h3q39 99 57 125q101 -36 113 -36q36 312 78 463q32 112 51 149l117 -7l-59 -136q-81 -232 -81 -401q-7 -102 -13 -368l-2 -2h-2l-38 4h-5q-21 0 -72 -17h-2v3l4 19q-3 38 -53 112q-16 -70 -36 -70l-106 -17q-47 83 -73 234 q-25 123 -25 185zM-1438 -393q0 5 114 6v-2l15 -72q0 -4 -110 -9l-2 -2l-3 2l3 3v2q0 15 -17 72zM-1383 2405v2q0 6 136 51q144 45 225 45h36q99 0 125 -94q9 -28 9 -65q0 -167 -153 -411q-83 -101 -176 -101q-63 4 -70 14q164 75 240 255q46 158 46 253v47q0 76 -46 76 q-110 -13 -136 -36l-7 -208v-59q0 -78 15 -139l-6 -4l-100 -4q-4 19 -19 359l-24 -11zM-1266 132l6 4h104l4 -4v-19q0 -111 30 -221h2q39 99 58 125q101 -36 112 -36q36 312 79 463q32 112 51 149l117 -7l-60 -136q-81 -232 -81 -401q-6 -102 -12 -368l-2 -2h-3l-38 4h-4 q-21 0 -72 -17h-2v3l4 19q-4 38 -53 112q-17 -70 -36 -70l-107 -17q-46 83 -72 234q-25 123 -25 185zM-1243 1987l2 2h2l109 2h2l6 -7v-38l-4 -6l-68 -2h-40l-7 6v32zM-1128 1339l6 4h104l5 -4v-20q0 -110 29 -221h2q39 100 58 126q101 -36 112 -36q42 355 87 493l9 25 q-80 27 -115 89q-27 66 -27 158v48q0 233 89 502q45 8 68 8h2q20 0 25 -36q68 -298 68 -367q0 -50 -195 -75v-12q0 -152 49 -251h2q76 206 83 206l61 -2h5l4 -4q-19 -49 -77 -170l13 -2l96 -5l-60 -136q-80 -233 -80 -401q-7 -102 -13 -368l-2 -2h-2l-39 4h-4q-21 0 -72 -17 h-2v2l4 20q-4 38 -53 112q-17 -70 -36 -70l-106 -17q-47 83 -73 234q-25 123 -25 185zM-967 -393q0 5 115 6v-2l15 -72q0 -4 -111 -9l-2 -2l-2 2l2 3v2q0 15 -17 72zM-829 814q0 5 115 6v-2l15 -72q0 -4 -111 -9l-2 -2l-2 2l2 2v3q0 15 -17 72zM-797 2065q121 30 121 51 q-16 166 -36 234l-15 38q-10 -12 -34 -112q-36 -129 -36 -211zM-795 132l7 4h104l4 -4v-19q0 -111 30 -221h2q39 99 57 125q101 -36 113 -36q36 312 79 463q31 112 51 149l116 -7l-59 -136q-81 -232 -81 -401q-6 -102 -13 -368l-2 -2h-2l-38 4h-4q-22 0 -73 -17h-2v3l5 19 q-4 38 -54 112q-16 -70 -36 -70l-106 -17q-47 83 -72 234q-26 123 -26 185zM-657 616q45 257 49 300h-2l-42 4v4q49 0 49 15q29 156 53 363l-2 15h2l38 -6v2l-9 53l3 2h2l110 -4l9 -4q-17 -164 -17 -287q0 -170 40 -280v-3l-79 -8q-8 25 -21 117l-42 4h-13 q-43 -197 -43 -278v-15l-4 -4q-74 0 -81 10zM-584 2103q0 6 125 17q23 -68 179 -252q57 -58 157 -117q79 -47 87 -47q12 0 40 174v2q0 106 -127 209q-189 110 -364 206l-4 17q0 26 77 117l138 276q129 -11 129 -24q-8 -63 -8 -102v-8q0 -107 57 -255l-2 -2h-106 q-19 0 -51 200h-4q-100 -176 -100 -200q0 -19 189 -115q141 -81 200 -127q80 -79 80 -240q0 -126 -63 -168h-7q-186 0 -267 74q-39 15 -179 153q-108 116 -176 212zM-523 939h2l43 4l-11 132h-2zM-495 -393q0 5 115 6v-2l15 -72q0 -4 -111 -9l-2 -2l-2 2l2 3v2q0 15 -17 72z M-446 752l2 2h2l94 -2l10 -38l-2 -2h-2l-72 -2h-7l-10 -2zM-270 -544q6 17 49 53h4q17 0 53 -53v-4q-40 -55 -55 -55q-10 0 -51 55v4zM-263 982q0 5 125 17q23 -68 178 -253q58 -58 158 -117q79 -47 87 -47q12 0 40 174v3q0 105 -127 208q-189 110 -364 206l-4 17 q0 26 77 117l138 276q129 -11 129 -23q-8 -64 -8 -102v-9q0 -107 57 -255l-2 -2h-106q-19 0 -51 200h-5q-99 -176 -99 -200q0 -18 189 -115q141 -80 199 -127q81 -79 81 -240q0 -66 -21 -119h2l62 -5l-60 -136q-81 -232 -81 -401q-6 -102 -12 -368l-2 -2h-3l-38 4h-4 q-21 0 -72 -17h-2v3l4 19q-4 38 -53 112q-17 -70 -36 -70l-107 -17q-46 83 -72 234q-25 123 -25 185l6 4h104l4 -4v-19q0 -111 30 -221h2q39 99 58 125q101 -36 112 -36q46 387 92 501l17 60h-3q-160 0 -272 95q-162 131 -280 287zM108 2486l2 2l75 -2h42q7 0 60 -298 l38 -240l-2 -2l-85 -2h-30l-6 6q-15 258 -28 258q-13 66 -66 278zM208 -393q0 5 115 6v-2l15 -72q0 -4 -111 -9l-2 -2l-2 2l2 3v2q0 15 -17 72zM217 1851v44l4 4h106q13 -8 13 -76l-2 -2h-2l-109 2h-4q-6 0 -6 28zM329 2318v47q0 176 90 336q27 42 106 42h40q81 0 81 -19 l125 -181q0 -6 -114 -12l-117 148q-111 -204 -111 -352v-26q0 -162 187 -442q27 -37 43 -49q44 314 44 412v28l2 2v2q117 -21 143 -29v-3l-24 -163q0 -110 49 -208l-2 -2h-81q-5 -6 -19 -81q-9 -41 -38 -41q-42 -10 -68 -10h-11q-48 0 -119 98q-65 74 -123 184 q-83 173 -83 319zM380 -591q45 257 49 300h-2l-42 4v4q48 0 48 15q30 156 54 364l-3 15h3l38 -7v2l-9 53l2 3h3l110 -5l9 -4q-17 -163 -17 -287q0 -169 40 -280v-2l-79 -9q-8 25 -21 117l-42 4h-13q-43 -197 -43 -278v-15l-4 -4q-74 0 -81 10zM438 982q0 5 125 17 q23 -68 179 -253q57 -58 157 -117q79 -47 87 -47q12 0 40 174v3q0 105 -127 208q-189 110 -364 206l-4 17q0 26 77 117l138 276q129 -11 129 -23q-8 -64 -8 -102v-9q0 -107 57 -255l-2 -2h-106q-19 0 -51 200h-4q-100 -176 -100 -200q0 -18 189 -115q141 -80 200 -127 q80 -79 80 -240q0 -126 -63 -168h-7q-186 0 -267 74q-39 15 -179 153q-108 116 -176 213zM514 -268h2l43 5l-11 131h-2zM591 -455l2 2h2l93 -2l11 -38l-2 -2h-2l-72 -2h-7l-10 -2zM773 -225q0 5 126 17q23 -68 178 -253q58 -58 157 -117q80 -47 88 -47q11 0 40 175v2 q0 106 -128 208q-188 110 -363 206l-4 17q0 26 76 117l138 276q130 -11 130 -23q-8 -64 -8 -102v-9q0 -107 57 -255l-2 -2h-106q-19 0 -51 200h-5q-100 -176 -100 -200q0 -18 190 -115q140 -80 199 -127q81 -79 81 -240q0 -126 -64 -168h-6q-187 0 -268 74q-38 15 -178 153 q-109 117 -177 213zM858 2023q11 32 11 46v9q0 7 28 8h19q57 0 57 -10v-51l-2 -2v-2l-79 -3h-10l-22 -2zM860 2263q3 231 15 231h2l107 3l123 -200h2v44q0 108 72 238h92q4 0 4 -6q-51 -155 -51 -261q0 -78 53 -183l-144 -36q-119 200 -156 253q-5 -206 -8 -206h-4l-100 2 l-2 2zM1005 1802v10q0 22 244 43q0 3 45 6q-9 41 -9 92v48q0 233 90 502q45 8 68 8h2q20 0 25 -36q66 -292 66 -344h2l155 15v2l-8 157l-77 -8l-51 4v4l126 15l-11 92l2 2l79 -9l44 7l3 -3l-5 -76q174 23 247 23h8q45 0 45 -27v-2q0 -42 -130 -111q0 -4 -51 -32v-2h5 q156 26 210 26q34 -5 34 -28v-2q0 -28 -85 -211q-77 -199 -77 -261q0 -16 7 -17l36 7l6 -9q0 -51 -97 -51l-30 2v-2q-68 -128 -128 -327q-44 -146 -44 -406q0 -114 19 -251l-2 -2h-111l-6 7l-4 146v66q0 281 68 478q-85 -135 -92 -193h-104l-57 74v-2l27 -217q-1 -21 -6 -21 l-106 4l-4 7q-15 331 -28 374l2 2l119 -5q44 -53 98 -104l138 221q0 35 -151 75q-313 107 -510 199q-36 28 -36 41zM1130 1364l2 2l75 -2h42q7 0 60 -297l38 -240l-2 -3l-85 -2h-30l-6 7q-15 257 -28 257q-13 66 -66 278zM1152 1800q12 -31 89 -81q92 -53 191 -89 q68 -22 312 -79q50 82 79 119q62 11 62 15q20 175 51 210q104 229 104 262q0 14 -39 14h-97q-17 0 -117 -55l4 -125q83 -37 111 -64v-2q0 -17 -94 -17h-2l-4 -4l6 -41q-13 -4 -102 -12l-2 2v40q-206 -27 -206 -32q-69 -155 -72 -155q-81 30 -113 89l-13 37q-85 -15 -148 -32 zM1239 729v44l4 5h106q13 -9 13 -77l-2 -2h-2l-109 2h-4q-6 0 -6 28zM1343 2021q4 -138 17 -149q78 9 78 15q33 89 39 89l61 -2h5l4 -4l-30 -73l185 32v28q-83 63 -179 123q-35 -22 -123 -38l-57 -9v-12zM1347 2065q121 29 121 53l-2 2v3l2 2q-19 172 -40 238l-11 25 q-10 -12 -34 -112q-36 -129 -36 -211zM1364 1842q11 -36 28 -72h2l30 83zM1475 -225q0 5 125 17q23 -68 178 -253q58 -58 158 -117q79 -47 87 -47q12 0 40 175v2q0 106 -127 208q-189 110 -364 206l-4 17q0 26 77 117l138 276q129 -11 129 -23q-8 -64 -8 -102v-9 q0 -107 57 -255l-2 -2h-106q-19 0 -51 200h-5q-99 -176 -99 -200q0 -18 189 -115q141 -80 199 -127q81 -79 81 -240q0 -126 -64 -168h-6q-187 0 -268 74q-38 15 -178 153q-109 117 -176 213zM1551 2106l140 -66v25q0 34 -8 34q-43 0 -130 9h-2v-2zM1783 2182h2 q63 35 165 136v4l3 2l-3 3l-12 2h-7q-58 0 -144 -11zM1838 1173q32 25 32 74q19 91 40 126h13q83 0 83 -9v-2l-17 -83h2q28 19 59 19h9q86 0 123 -59l2 -13q0 -106 -64 -506q-11 -8 -19 -8q-19 0 -102 51zM1961 1143l74 -195h3q27 212 27 293v10l-4 5q-27 -19 -47 -51 q-10 -28 -17 -28l-30 15zM2167 157l2 2l75 -2h42q7 0 60 -297l38 -240l-2 -2l-85 -3h-30l-6 7q-15 257 -28 257q-13 66 -66 278zM2276 -433l4 4h106q13 -9 13 -77l-2 -2h-2l-109 2h-4q-6 0 -6 28v45zM2382 166l2 2l119 -4q44 -54 98 -104q181 291 259 403l125 26l2 -2v-3 q-199 -368 -199 -733v-55q0 -113 19 -251l-2 -2h-111l-6 7l-5 146v66q0 281 68 478q-84 -135 -91 -193h-104l-57 74v-2l27 -217q-1 -21 -6 -21l-106 4l-5 7q-14 331 -27 374zM2875 -34q32 25 32 74q19 91 40 126h13q83 0 83 -9v-2l-17 -83h2q28 19 59 19h9q86 0 123 -59 l2 -13q0 -105 -64 -506q-11 -8 -19 -8q-19 0 -102 51zM2998 -64l74 -195h2q28 212 28 293v11l-4 4q-27 -19 -47 -51q-11 -28 -17 -28l-30 15z" />
<glyph unicode="5" d="M-1738 132l6 4h104l5 -4v-19q0 -111 29 -221h3q39 99 57 125q101 -36 113 -36q36 312 78 463q32 112 51 149l117 -7l-59 -136q-81 -232 -81 -401q-7 -102 -13 -368l-2 -2h-2l-38 4h-5q-21 0 -72 -17h-2v3l4 19q-3 38 -53 112q-16 -70 -36 -70l-106 -17q-47 83 -73 234 q-25 123 -25 185zM-1438 -393q0 5 114 6v-2l15 -72q0 -4 -110 -9l-2 -2l-3 2l3 3v2q0 15 -17 72zM-1383 2405v2q0 6 136 51q144 45 225 45h36q99 0 125 -94q9 -28 9 -65q0 -167 -153 -411q-83 -101 -176 -101q-63 4 -70 14q164 75 240 255q46 158 46 253v47q0 76 -46 76 q-110 -13 -136 -36l-7 -208v-59q0 -78 15 -139l-6 -4l-100 -4q-4 19 -19 359l-24 -11zM-1266 132l6 4h104l4 -4v-19q0 -111 30 -221h2q39 99 58 125q101 -36 112 -36q36 312 79 463q32 112 51 149l117 -7l-60 -136q-81 -232 -81 -401q-6 -102 -12 -368l-2 -2h-3l-38 4h-4 q-21 0 -72 -17h-2v3l4 19q-4 38 -53 112q-17 -70 -36 -70l-107 -17q-46 83 -72 234q-25 123 -25 185zM-1243 1987l2 2h2l109 2h2l6 -7v-38l-4 -6l-68 -2h-40l-7 6v32zM-1128 1339l6 4h104l5 -4v-20q0 -110 29 -221h2q39 100 58 126q101 -36 112 -36q42 355 87 493l9 25 q-80 27 -115 89q-27 66 -27 158v48q0 233 89 502q45 8 68 8h2q20 0 25 -36q68 -298 68 -367q0 -50 -195 -75v-12q0 -152 49 -251h2q76 206 83 206l61 -2h5l4 -4q-19 -49 -77 -170l13 -2l96 -5l-60 -136q-80 -233 -80 -401q-7 -102 -13 -368l-2 -2h-2l-39 4h-4q-21 0 -72 -17 h-2v2l4 20q-4 38 -53 112q-17 -70 -36 -70l-106 -17q-47 83 -73 234q-25 123 -25 185zM-967 -393q0 5 115 6v-2l15 -72q0 -4 -111 -9l-2 -2l-2 2l2 3v2q0 15 -17 72zM-829 814q0 5 115 6v-2l15 -72q0 -4 -111 -9l-2 -2l-2 2l2 2v3q0 15 -17 72zM-797 2065q121 30 121 51 q-16 166 -36 234l-15 38q-10 -12 -34 -112q-36 -129 -36 -211zM-795 132l7 4h104l4 -4v-19q0 -111 30 -221h2q39 99 57 125q101 -36 113 -36q36 312 79 463q31 112 51 149l116 -7l-59 -136q-81 -232 -81 -401q-6 -102 -13 -368l-2 -2h-2l-38 4h-4q-22 0 -73 -17h-2v3l5 19 q-4 38 -54 112q-16 -70 -36 -70l-106 -17q-47 83 -72 234q-26 123 -26 185zM-657 616q45 257 49 300h-2l-42 4v4q49 0 49 15q29 156 53 363l-2 15h2l38 -6v2l-9 53l3 2h2l110 -4l9 -4q-17 -164 -17 -287q0 -170 40 -280v-3l-79 -8q-8 25 -21 117l-42 4h-13 q-43 -197 -43 -278v-15l-4 -4q-74 0 -81 10zM-584 2103q0 6 125 17q23 -68 179 -252q57 -58 157 -117q79 -47 87 -47q12 0 40 174v2q0 106 -127 209q-189 110 -364 206l-4 17q0 26 77 117l138 276q129 -11 129 -24q-8 -63 -8 -102v-8q0 -107 57 -255l-2 -2h-106 q-19 0 -51 200h-4q-100 -176 -100 -200q0 -19 189 -115q141 -81 200 -127q80 -79 80 -240q0 -126 -63 -168h-7q-186 0 -267 74q-39 15 -179 153q-108 116 -176 212zM-523 939h2l43 4l-11 132h-2zM-495 -393q0 5 115 6v-2l15 -72q0 -4 -111 -9l-2 -2l-2 2l2 3v2q0 15 -17 72z M-446 752l2 2h2l94 -2l10 -38l-2 -2h-2l-72 -2h-7l-10 -2zM-270 -544q6 17 49 53h4q17 0 53 -53v-4q-40 -55 -55 -55q-10 0 -51 55v4zM-263 982q0 5 125 17q23 -68 178 -253q58 -58 158 -117q79 -47 87 -47q12 0 40 174v3q0 105 -127 208q-189 110 -364 206l-4 17 q0 26 77 117l138 276q129 -11 129 -23q-8 -64 -8 -102v-9q0 -107 57 -255l-2 -2h-106q-19 0 -51 200h-5q-99 -176 -99 -200q0 -18 189 -115q141 -80 199 -127q81 -79 81 -240q0 -66 -21 -119h2l62 -5l-60 -136q-81 -232 -81 -401q-6 -102 -12 -368l-2 -2h-3l-38 4h-4 q-21 0 -72 -17h-2v3l4 19q-4 38 -53 112q-17 -70 -36 -70l-107 -17q-46 83 -72 234q-25 123 -25 185l6 4h104l4 -4v-19q0 -111 30 -221h2q39 99 58 125q101 -36 112 -36q46 387 92 501l17 60h-3q-160 0 -272 95q-162 131 -280 287zM108 2486l2 2l75 -2h42q7 0 60 -298 l38 -240l-2 -2l-85 -2h-30l-6 6q-15 258 -28 258q-13 66 -66 278zM208 -393q0 5 115 6v-2l15 -72q0 -4 -111 -9l-2 -2l-2 2l2 3v2q0 15 -17 72zM217 1851v44l4 4h106q13 -8 13 -76l-2 -2h-2l-109 2h-4q-6 0 -6 28zM329 2318v47q0 176 90 336q27 42 106 42h40q81 0 81 -19 l125 -181q0 -6 -114 -12l-117 148q-111 -204 -111 -352v-26q0 -162 187 -442q27 -37 43 -49q44 314 44 412v28l2 2v2q117 -21 143 -29v-3l-24 -163q0 -110 49 -208l-2 -2h-81q-5 -6 -19 -81q-9 -41 -38 -41q-42 -10 -68 -10h-11q-48 0 -119 98q-65 74 -123 184 q-83 173 -83 319zM380 -591q45 257 49 300h-2l-42 4v4q48 0 48 15q30 156 54 364l-3 15h3l38 -7v2l-9 53l2 3h3l110 -5l9 -4q-17 -163 -17 -287q0 -169 40 -280v-2l-79 -9q-8 25 -21 117l-42 4h-13q-43 -197 -43 -278v-15l-4 -4q-74 0 -81 10zM438 982q0 5 125 17 q23 -68 179 -253q57 -58 157 -117q79 -47 87 -47q12 0 40 174v3q0 105 -127 208q-189 110 -364 206l-4 17q0 26 77 117l138 276q129 -11 129 -23q-8 -64 -8 -102v-9q0 -107 57 -255l-2 -2h-106q-19 0 -51 200h-4q-100 -176 -100 -200q0 -18 189 -115q141 -80 200 -127 q80 -79 80 -240q0 -126 -63 -168h-7q-186 0 -267 74q-39 15 -179 153q-108 116 -176 213zM514 -268h2l43 5l-11 131h-2zM591 -455l2 2h2l93 -2l11 -38l-2 -2h-2l-72 -2h-7l-10 -2zM773 -225q0 5 126 17q23 -68 178 -253q58 -58 157 -117q80 -47 88 -47q11 0 40 175v2 q0 106 -128 208q-188 110 -363 206l-4 17q0 26 76 117l138 276q130 -11 130 -23q-8 -64 -8 -102v-9q0 -107 57 -255l-2 -2h-106q-19 0 -51 200h-5q-100 -176 -100 -200q0 -18 190 -115q140 -80 199 -127q81 -79 81 -240q0 -126 -64 -168h-6q-187 0 -268 74q-38 15 -178 153 q-109 117 -177 213zM858 2023q11 32 11 46v9q0 7 28 8h19q57 0 57 -10v-51l-2 -2v-2l-79 -3h-10l-22 -2zM860 2263q3 231 15 231h2l107 3l123 -200h2v44q0 108 72 238h92q4 0 4 -6q-51 -155 -51 -261q0 -78 53 -183l-144 -36q-119 200 -156 253q-5 -206 -8 -206h-4l-100 2 l-2 2zM1005 1802v10q0 22 244 43q0 3 45 6q-9 41 -9 92v48q0 233 90 502q45 8 68 8h2q20 0 25 -36q66 -292 66 -344h2l155 15v2l-8 157l-77 -8l-51 4v4l126 15l-11 92l2 2l79 -9l44 7l3 -3l-5 -76q174 23 247 23h8q45 0 45 -27v-2q0 -42 -130 -111q0 -4 -51 -32v-2h5 q156 26 210 26q34 -5 34 -28v-2q0 -28 -85 -211q-77 -199 -77 -261q0 -16 7 -17l36 7l6 -9q0 -51 -97 -51l-30 2v-2q-68 -128 -128 -327q-44 -146 -44 -406q0 -114 19 -251l-2 -2h-111l-6 7l-4 146v66q0 281 68 478q-85 -135 -92 -193h-104l-57 74v-2l27 -217q-1 -21 -6 -21 l-106 4l-4 7q-15 331 -28 374l2 2l119 -5q44 -53 98 -104l138 221q0 35 -151 75q-313 107 -510 199q-36 28 -36 41zM1130 1364l2 2l75 -2h42q7 0 60 -297l38 -240l-2 -3l-85 -2h-30l-6 7q-15 257 -28 257q-13 66 -66 278zM1152 1800q12 -31 89 -81q92 -53 191 -89 q68 -22 312 -79q50 82 79 119q62 11 62 15q20 175 51 210q104 229 104 262q0 14 -39 14h-97q-17 0 -117 -55l4 -125q83 -37 111 -64v-2q0 -17 -94 -17h-2l-4 -4l6 -41q-13 -4 -102 -12l-2 2v40q-206 -27 -206 -32q-69 -155 -72 -155q-81 30 -113 89l-13 37q-85 -15 -148 -32 zM1239 729v44l4 5h106q13 -9 13 -77l-2 -2h-2l-109 2h-4q-6 0 -6 28zM1343 2021q4 -138 17 -149q78 9 78 15q33 89 39 89l61 -2h5l4 -4l-30 -73l185 32v28q-83 63 -179 123q-35 -22 -123 -38l-57 -9v-12zM1347 2065q121 29 121 53l-2 2v3l2 2q-19 172 -40 238l-11 25 q-10 -12 -34 -112q-36 -129 -36 -211zM1364 1842q11 -36 28 -72h2l30 83zM1475 -225q0 5 125 17q23 -68 178 -253q58 -58 158 -117q79 -47 87 -47q12 0 40 175v2q0 106 -127 208q-189 110 -364 206l-4 17q0 26 77 117l138 276q129 -11 129 -23q-8 -64 -8 -102v-9 q0 -107 57 -255l-2 -2h-106q-19 0 -51 200h-5q-99 -176 -99 -200q0 -18 189 -115q141 -80 199 -127q81 -79 81 -240q0 -126 -64 -168h-6q-187 0 -268 74q-38 15 -178 153q-109 117 -176 213zM1551 2106l140 -66v25q0 34 -8 34q-43 0 -130 9h-2v-2zM1783 2182h2 q63 35 165 136v4l3 2l-3 3l-12 2h-7q-58 0 -144 -11zM1838 1173q32 25 32 74q19 91 40 126h13q83 0 83 -9v-2l-17 -83h2q28 19 59 19h9q86 0 123 -59l2 -13q0 -106 -64 -506q-11 -8 -19 -8q-19 0 -102 51zM1961 1143l74 -195h3q27 212 27 293v10l-4 5q-27 -19 -47 -51 q-10 -28 -17 -28l-30 15zM2167 157l2 2l75 -2h42q7 0 60 -297l38 -240l-2 -2l-85 -3h-30l-6 7q-15 257 -28 257q-13 66 -66 278zM2276 -433l4 4h106q13 -9 13 -77l-2 -2h-2l-109 2h-4q-6 0 -6 28v45zM2382 166l2 2l119 -4q44 -54 98 -104q181 291 259 403l125 26l2 -2v-3 q-199 -368 -199 -733v-55q0 -113 19 -251l-2 -2h-111l-6 7l-5 146v66q0 281 68 478q-84 -135 -91 -193h-104l-57 74v-2l27 -217q-1 -21 -6 -21l-106 4l-5 7q-14 331 -27 374zM2875 -34q32 25 32 74q19 91 40 126h13q83 0 83 -9v-2l-17 -83h2q28 19 59 19h9q86 0 123 -59 l2 -13q0 -105 -64 -506q-11 -8 -19 -8q-19 0 -102 51zM2998 -64l74 -195h2q28 212 28 293v11l-4 4q-27 -19 -47 -51q-11 -28 -17 -28l-30 15z" />
<glyph unicode="6" d="M-1738 132l6 4h104l5 -4v-19q0 -111 29 -221h3q39 99 57 125q101 -36 113 -36q36 312 78 463q32 112 51 149l117 -7l-59 -136q-81 -232 -81 -401q-7 -102 -13 -368l-2 -2h-2l-38 4h-5q-21 0 -72 -17h-2v3l4 19q-3 38 -53 112q-16 -70 -36 -70l-106 -17q-47 83 -73 234 q-25 123 -25 185zM-1438 -393q0 5 114 6v-2l15 -72q0 -4 -110 -9l-2 -2l-3 2l3 3v2q0 15 -17 72zM-1383 2405v2q0 6 136 51q144 45 225 45h36q99 0 125 -94q9 -28 9 -65q0 -167 -153 -411q-83 -101 -176 -101q-63 4 -70 14q164 75 240 255q46 158 46 253v47q0 76 -46 76 q-110 -13 -136 -36l-7 -208v-59q0 -78 15 -139l-6 -4l-100 -4q-4 19 -19 359l-24 -11zM-1266 132l6 4h104l4 -4v-19q0 -111 30 -221h2q39 99 58 125q101 -36 112 -36q36 312 79 463q32 112 51 149l117 -7l-60 -136q-81 -232 -81 -401q-6 -102 -12 -368l-2 -2h-3l-38 4h-4 q-21 0 -72 -17h-2v3l4 19q-4 38 -53 112q-17 -70 -36 -70l-107 -17q-46 83 -72 234q-25 123 -25 185zM-1243 1987l2 2h2l109 2h2l6 -7v-38l-4 -6l-68 -2h-40l-7 6v32zM-1128 1339l6 4h104l5 -4v-20q0 -110 29 -221h2q39 100 58 126q101 -36 112 -36q42 355 87 493l9 25 q-80 27 -115 89q-27 66 -27 158v48q0 233 89 502q45 8 68 8h2q20 0 25 -36q68 -298 68 -367q0 -50 -195 -75v-12q0 -152 49 -251h2q76 206 83 206l61 -2h5l4 -4q-19 -49 -77 -170l13 -2l96 -5l-60 -136q-80 -233 -80 -401q-7 -102 -13 -368l-2 -2h-2l-39 4h-4q-21 0 -72 -17 h-2v2l4 20q-4 38 -53 112q-17 -70 -36 -70l-106 -17q-47 83 -73 234q-25 123 -25 185zM-967 -393q0 5 115 6v-2l15 -72q0 -4 -111 -9l-2 -2l-2 2l2 3v2q0 15 -17 72zM-829 814q0 5 115 6v-2l15 -72q0 -4 -111 -9l-2 -2l-2 2l2 2v3q0 15 -17 72zM-797 2065q121 30 121 51 q-16 166 -36 234l-15 38q-10 -12 -34 -112q-36 -129 -36 -211zM-795 132l7 4h104l4 -4v-19q0 -111 30 -221h2q39 99 57 125q101 -36 113 -36q36 312 79 463q31 112 51 149l116 -7l-59 -136q-81 -232 -81 -401q-6 -102 -13 -368l-2 -2h-2l-38 4h-4q-22 0 -73 -17h-2v3l5 19 q-4 38 -54 112q-16 -70 -36 -70l-106 -17q-47 83 -72 234q-26 123 -26 185zM-657 616q45 257 49 300h-2l-42 4v4q49 0 49 15q29 156 53 363l-2 15h2l38 -6v2l-9 53l3 2h2l110 -4l9 -4q-17 -164 -17 -287q0 -170 40 -280v-3l-79 -8q-8 25 -21 117l-42 4h-13 q-43 -197 -43 -278v-15l-4 -4q-74 0 -81 10zM-584 2103q0 6 125 17q23 -68 179 -252q57 -58 157 -117q79 -47 87 -47q12 0 40 174v2q0 106 -127 209q-189 110 -364 206l-4 17q0 26 77 117l138 276q129 -11 129 -24q-8 -63 -8 -102v-8q0 -107 57 -255l-2 -2h-106 q-19 0 -51 200h-4q-100 -176 -100 -200q0 -19 189 -115q141 -81 200 -127q80 -79 80 -240q0 -126 -63 -168h-7q-186 0 -267 74q-39 15 -179 153q-108 116 -176 212zM-523 939h2l43 4l-11 132h-2zM-495 -393q0 5 115 6v-2l15 -72q0 -4 -111 -9l-2 -2l-2 2l2 3v2q0 15 -17 72z M-446 752l2 2h2l94 -2l10 -38l-2 -2h-2l-72 -2h-7l-10 -2zM-270 -544q6 17 49 53h4q17 0 53 -53v-4q-40 -55 -55 -55q-10 0 -51 55v4zM-263 982q0 5 125 17q23 -68 178 -253q58 -58 158 -117q79 -47 87 -47q12 0 40 174v3q0 105 -127 208q-189 110 -364 206l-4 17 q0 26 77 117l138 276q129 -11 129 -23q-8 -64 -8 -102v-9q0 -107 57 -255l-2 -2h-106q-19 0 -51 200h-5q-99 -176 -99 -200q0 -18 189 -115q141 -80 199 -127q81 -79 81 -240q0 -66 -21 -119h2l62 -5l-60 -136q-81 -232 -81 -401q-6 -102 -12 -368l-2 -2h-3l-38 4h-4 q-21 0 -72 -17h-2v3l4 19q-4 38 -53 112q-17 -70 -36 -70l-107 -17q-46 83 -72 234q-25 123 -25 185l6 4h104l4 -4v-19q0 -111 30 -221h2q39 99 58 125q101 -36 112 -36q46 387 92 501l17 60h-3q-160 0 -272 95q-162 131 -280 287zM108 2486l2 2l75 -2h42q7 0 60 -298 l38 -240l-2 -2l-85 -2h-30l-6 6q-15 258 -28 258q-13 66 -66 278zM208 -393q0 5 115 6v-2l15 -72q0 -4 -111 -9l-2 -2l-2 2l2 3v2q0 15 -17 72zM217 1851v44l4 4h106q13 -8 13 -76l-2 -2h-2l-109 2h-4q-6 0 -6 28zM329 2318v47q0 176 90 336q27 42 106 42h40q81 0 81 -19 l125 -181q0 -6 -114 -12l-117 148q-111 -204 -111 -352v-26q0 -162 187 -442q27 -37 43 -49q44 314 44 412v28l2 2v2q117 -21 143 -29v-3l-24 -163q0 -110 49 -208l-2 -2h-81q-5 -6 -19 -81q-9 -41 -38 -41q-42 -10 -68 -10h-11q-48 0 -119 98q-65 74 -123 184 q-83 173 -83 319zM380 -591q45 257 49 300h-2l-42 4v4q48 0 48 15q30 156 54 364l-3 15h3l38 -7v2l-9 53l2 3h3l110 -5l9 -4q-17 -163 -17 -287q0 -169 40 -280v-2l-79 -9q-8 25 -21 117l-42 4h-13q-43 -197 -43 -278v-15l-4 -4q-74 0 -81 10zM438 982q0 5 125 17 q23 -68 179 -253q57 -58 157 -117q79 -47 87 -47q12 0 40 174v3q0 105 -127 208q-189 110 -364 206l-4 17q0 26 77 117l138 276q129 -11 129 -23q-8 -64 -8 -102v-9q0 -107 57 -255l-2 -2h-106q-19 0 -51 200h-4q-100 -176 -100 -200q0 -18 189 -115q141 -80 200 -127 q80 -79 80 -240q0 -126 -63 -168h-7q-186 0 -267 74q-39 15 -179 153q-108 116 -176 213zM514 -268h2l43 5l-11 131h-2zM591 -455l2 2h2l93 -2l11 -38l-2 -2h-2l-72 -2h-7l-10 -2zM773 -225q0 5 126 17q23 -68 178 -253q58 -58 157 -117q80 -47 88 -47q11 0 40 175v2 q0 106 -128 208q-188 110 -363 206l-4 17q0 26 76 117l138 276q130 -11 130 -23q-8 -64 -8 -102v-9q0 -107 57 -255l-2 -2h-106q-19 0 -51 200h-5q-100 -176 -100 -200q0 -18 190 -115q140 -80 199 -127q81 -79 81 -240q0 -126 -64 -168h-6q-187 0 -268 74q-38 15 -178 153 q-109 117 -177 213zM858 2023q11 32 11 46v9q0 7 28 8h19q57 0 57 -10v-51l-2 -2v-2l-79 -3h-10l-22 -2zM860 2263q3 231 15 231h2l107 3l123 -200h2v44q0 108 72 238h92q4 0 4 -6q-51 -155 -51 -261q0 -78 53 -183l-144 -36q-119 200 -156 253q-5 -206 -8 -206h-4l-100 2 l-2 2zM1005 1802v10q0 22 244 43q0 3 45 6q-9 41 -9 92v48q0 233 90 502q45 8 68 8h2q20 0 25 -36q66 -292 66 -344h2l155 15v2l-8 157l-77 -8l-51 4v4l126 15l-11 92l2 2l79 -9l44 7l3 -3l-5 -76q174 23 247 23h8q45 0 45 -27v-2q0 -42 -130 -111q0 -4 -51 -32v-2h5 q156 26 210 26q34 -5 34 -28v-2q0 -28 -85 -211q-77 -199 -77 -261q0 -16 7 -17l36 7l6 -9q0 -51 -97 -51l-30 2v-2q-68 -128 -128 -327q-44 -146 -44 -406q0 -114 19 -251l-2 -2h-111l-6 7l-4 146v66q0 281 68 478q-85 -135 -92 -193h-104l-57 74v-2l27 -217q-1 -21 -6 -21 l-106 4l-4 7q-15 331 -28 374l2 2l119 -5q44 -53 98 -104l138 221q0 35 -151 75q-313 107 -510 199q-36 28 -36 41zM1130 1364l2 2l75 -2h42q7 0 60 -297l38 -240l-2 -3l-85 -2h-30l-6 7q-15 257 -28 257q-13 66 -66 278zM1152 1800q12 -31 89 -81q92 -53 191 -89 q68 -22 312 -79q50 82 79 119q62 11 62 15q20 175 51 210q104 229 104 262q0 14 -39 14h-97q-17 0 -117 -55l4 -125q83 -37 111 -64v-2q0 -17 -94 -17h-2l-4 -4l6 -41q-13 -4 -102 -12l-2 2v40q-206 -27 -206 -32q-69 -155 -72 -155q-81 30 -113 89l-13 37q-85 -15 -148 -32 zM1239 729v44l4 5h106q13 -9 13 -77l-2 -2h-2l-109 2h-4q-6 0 -6 28zM1343 2021q4 -138 17 -149q78 9 78 15q33 89 39 89l61 -2h5l4 -4l-30 -73l185 32v28q-83 63 -179 123q-35 -22 -123 -38l-57 -9v-12zM1347 2065q121 29 121 53l-2 2v3l2 2q-19 172 -40 238l-11 25 q-10 -12 -34 -112q-36 -129 -36 -211zM1364 1842q11 -36 28 -72h2l30 83zM1475 -225q0 5 125 17q23 -68 178 -253q58 -58 158 -117q79 -47 87 -47q12 0 40 175v2q0 106 -127 208q-189 110 -364 206l-4 17q0 26 77 117l138 276q129 -11 129 -23q-8 -64 -8 -102v-9 q0 -107 57 -255l-2 -2h-106q-19 0 -51 200h-5q-99 -176 -99 -200q0 -18 189 -115q141 -80 199 -127q81 -79 81 -240q0 -126 -64 -168h-6q-187 0 -268 74q-38 15 -178 153q-109 117 -176 213zM1551 2106l140 -66v25q0 34 -8 34q-43 0 -130 9h-2v-2zM1783 2182h2 q63 35 165 136v4l3 2l-3 3l-12 2h-7q-58 0 -144 -11zM1838 1173q32 25 32 74q19 91 40 126h13q83 0 83 -9v-2l-17 -83h2q28 19 59 19h9q86 0 123 -59l2 -13q0 -106 -64 -506q-11 -8 -19 -8q-19 0 -102 51zM1961 1143l74 -195h3q27 212 27 293v10l-4 5q-27 -19 -47 -51 q-10 -28 -17 -28l-30 15zM2167 157l2 2l75 -2h42q7 0 60 -297l38 -240l-2 -2l-85 -3h-30l-6 7q-15 257 -28 257q-13 66 -66 278zM2276 -433l4 4h106q13 -9 13 -77l-2 -2h-2l-109 2h-4q-6 0 -6 28v45zM2382 166l2 2l119 -4q44 -54 98 -104q181 291 259 403l125 26l2 -2v-3 q-199 -368 -199 -733v-55q0 -113 19 -251l-2 -2h-111l-6 7l-5 146v66q0 281 68 478q-84 -135 -91 -193h-104l-57 74v-2l27 -217q-1 -21 -6 -21l-106 4l-5 7q-14 331 -27 374zM2875 -34q32 25 32 74q19 91 40 126h13q83 0 83 -9v-2l-17 -83h2q28 19 59 19h9q86 0 123 -59 l2 -13q0 -105 -64 -506q-11 -8 -19 -8q-19 0 -102 51zM2998 -64l74 -195h2q28 212 28 293v11l-4 4q-27 -19 -47 -51q-11 -28 -17 -28l-30 15z" />
<glyph unicode="7" d="M-1738 132l6 4h104l5 -4v-19q0 -111 29 -221h3q39 99 57 125q101 -36 113 -36q36 312 78 463q32 112 51 149l117 -7l-59 -136q-81 -232 -81 -401q-7 -102 -13 -368l-2 -2h-2l-38 4h-5q-21 0 -72 -17h-2v3l4 19q-3 38 -53 112q-16 -70 -36 -70l-106 -17q-47 83 -73 234 q-25 123 -25 185zM-1438 -393q0 5 114 6v-2l15 -72q0 -4 -110 -9l-2 -2l-3 2l3 3v2q0 15 -17 72zM-1383 2405v2q0 6 136 51q144 45 225 45h36q99 0 125 -94q9 -28 9 -65q0 -167 -153 -411q-83 -101 -176 -101q-63 4 -70 14q164 75 240 255q46 158 46 253v47q0 76 -46 76 q-110 -13 -136 -36l-7 -208v-59q0 -78 15 -139l-6 -4l-100 -4q-4 19 -19 359l-24 -11zM-1266 132l6 4h104l4 -4v-19q0 -111 30 -221h2q39 99 58 125q101 -36 112 -36q36 312 79 463q32 112 51 149l117 -7l-60 -136q-81 -232 -81 -401q-6 -102 -12 -368l-2 -2h-3l-38 4h-4 q-21 0 -72 -17h-2v3l4 19q-4 38 -53 112q-17 -70 -36 -70l-107 -17q-46 83 -72 234q-25 123 -25 185zM-1243 1987l2 2h2l109 2h2l6 -7v-38l-4 -6l-68 -2h-40l-7 6v32zM-1128 1339l6 4h104l5 -4v-20q0 -110 29 -221h2q39 100 58 126q101 -36 112 -36q42 355 87 493l9 25 q-80 27 -115 89q-27 66 -27 158v48q0 233 89 502q45 8 68 8h2q20 0 25 -36q68 -298 68 -367q0 -50 -195 -75v-12q0 -152 49 -251h2q76 206 83 206l61 -2h5l4 -4q-19 -49 -77 -170l13 -2l96 -5l-60 -136q-80 -233 -80 -401q-7 -102 -13 -368l-2 -2h-2l-39 4h-4q-21 0 -72 -17 h-2v2l4 20q-4 38 -53 112q-17 -70 -36 -70l-106 -17q-47 83 -73 234q-25 123 -25 185zM-967 -393q0 5 115 6v-2l15 -72q0 -4 -111 -9l-2 -2l-2 2l2 3v2q0 15 -17 72zM-829 814q0 5 115 6v-2l15 -72q0 -4 -111 -9l-2 -2l-2 2l2 2v3q0 15 -17 72zM-797 2065q121 30 121 51 q-16 166 -36 234l-15 38q-10 -12 -34 -112q-36 -129 -36 -211zM-795 132l7 4h104l4 -4v-19q0 -111 30 -221h2q39 99 57 125q101 -36 113 -36q36 312 79 463q31 112 51 149l116 -7l-59 -136q-81 -232 -81 -401q-6 -102 -13 -368l-2 -2h-2l-38 4h-4q-22 0 -73 -17h-2v3l5 19 q-4 38 -54 112q-16 -70 -36 -70l-106 -17q-47 83 -72 234q-26 123 -26 185zM-657 616q45 257 49 300h-2l-42 4v4q49 0 49 15q29 156 53 363l-2 15h2l38 -6v2l-9 53l3 2h2l110 -4l9 -4q-17 -164 -17 -287q0 -170 40 -280v-3l-79 -8q-8 25 -21 117l-42 4h-13 q-43 -197 -43 -278v-15l-4 -4q-74 0 -81 10zM-584 2103q0 6 125 17q23 -68 179 -252q57 -58 157 -117q79 -47 87 -47q12 0 40 174v2q0 106 -127 209q-189 110 -364 206l-4 17q0 26 77 117l138 276q129 -11 129 -24q-8 -63 -8 -102v-8q0 -107 57 -255l-2 -2h-106 q-19 0 -51 200h-4q-100 -176 -100 -200q0 -19 189 -115q141 -81 200 -127q80 -79 80 -240q0 -126 -63 -168h-7q-186 0 -267 74q-39 15 -179 153q-108 116 -176 212zM-523 939h2l43 4l-11 132h-2zM-495 -393q0 5 115 6v-2l15 -72q0 -4 -111 -9l-2 -2l-2 2l2 3v2q0 15 -17 72z M-446 752l2 2h2l94 -2l10 -38l-2 -2h-2l-72 -2h-7l-10 -2zM-270 -544q6 17 49 53h4q17 0 53 -53v-4q-40 -55 -55 -55q-10 0 -51 55v4zM-263 982q0 5 125 17q23 -68 178 -253q58 -58 158 -117q79 -47 87 -47q12 0 40 174v3q0 105 -127 208q-189 110 -364 206l-4 17 q0 26 77 117l138 276q129 -11 129 -23q-8 -64 -8 -102v-9q0 -107 57 -255l-2 -2h-106q-19 0 -51 200h-5q-99 -176 -99 -200q0 -18 189 -115q141 -80 199 -127q81 -79 81 -240q0 -66 -21 -119h2l62 -5l-60 -136q-81 -232 -81 -401q-6 -102 -12 -368l-2 -2h-3l-38 4h-4 q-21 0 -72 -17h-2v3l4 19q-4 38 -53 112q-17 -70 -36 -70l-107 -17q-46 83 -72 234q-25 123 -25 185l6 4h104l4 -4v-19q0 -111 30 -221h2q39 99 58 125q101 -36 112 -36q46 387 92 501l17 60h-3q-160 0 -272 95q-162 131 -280 287zM108 2486l2 2l75 -2h42q7 0 60 -298 l38 -240l-2 -2l-85 -2h-30l-6 6q-15 258 -28 258q-13 66 -66 278zM208 -393q0 5 115 6v-2l15 -72q0 -4 -111 -9l-2 -2l-2 2l2 3v2q0 15 -17 72zM217 1851v44l4 4h106q13 -8 13 -76l-2 -2h-2l-109 2h-4q-6 0 -6 28zM329 2318v47q0 176 90 336q27 42 106 42h40q81 0 81 -19 l125 -181q0 -6 -114 -12l-117 148q-111 -204 -111 -352v-26q0 -162 187 -442q27 -37 43 -49q44 314 44 412v28l2 2v2q117 -21 143 -29v-3l-24 -163q0 -110 49 -208l-2 -2h-81q-5 -6 -19 -81q-9 -41 -38 -41q-42 -10 -68 -10h-11q-48 0 -119 98q-65 74 -123 184 q-83 173 -83 319zM380 -591q45 257 49 300h-2l-42 4v4q48 0 48 15q30 156 54 364l-3 15h3l38 -7v2l-9 53l2 3h3l110 -5l9 -4q-17 -163 -17 -287q0 -169 40 -280v-2l-79 -9q-8 25 -21 117l-42 4h-13q-43 -197 -43 -278v-15l-4 -4q-74 0 -81 10zM438 982q0 5 125 17 q23 -68 179 -253q57 -58 157 -117q79 -47 87 -47q12 0 40 174v3q0 105 -127 208q-189 110 -364 206l-4 17q0 26 77 117l138 276q129 -11 129 -23q-8 -64 -8 -102v-9q0 -107 57 -255l-2 -2h-106q-19 0 -51 200h-4q-100 -176 -100 -200q0 -18 189 -115q141 -80 200 -127 q80 -79 80 -240q0 -126 -63 -168h-7q-186 0 -267 74q-39 15 -179 153q-108 116 -176 213zM514 -268h2l43 5l-11 131h-2zM591 -455l2 2h2l93 -2l11 -38l-2 -2h-2l-72 -2h-7l-10 -2zM773 -225q0 5 126 17q23 -68 178 -253q58 -58 157 -117q80 -47 88 -47q11 0 40 175v2 q0 106 -128 208q-188 110 -363 206l-4 17q0 26 76 117l138 276q130 -11 130 -23q-8 -64 -8 -102v-9q0 -107 57 -255l-2 -2h-106q-19 0 -51 200h-5q-100 -176 -100 -200q0 -18 190 -115q140 -80 199 -127q81 -79 81 -240q0 -126 -64 -168h-6q-187 0 -268 74q-38 15 -178 153 q-109 117 -177 213zM858 2023q11 32 11 46v9q0 7 28 8h19q57 0 57 -10v-51l-2 -2v-2l-79 -3h-10l-22 -2zM860 2263q3 231 15 231h2l107 3l123 -200h2v44q0 108 72 238h92q4 0 4 -6q-51 -155 -51 -261q0 -78 53 -183l-144 -36q-119 200 -156 253q-5 -206 -8 -206h-4l-100 2 l-2 2zM1005 1802v10q0 22 244 43q0 3 45 6q-9 41 -9 92v48q0 233 90 502q45 8 68 8h2q20 0 25 -36q66 -292 66 -344h2l155 15v2l-8 157l-77 -8l-51 4v4l126 15l-11 92l2 2l79 -9l44 7l3 -3l-5 -76q174 23 247 23h8q45 0 45 -27v-2q0 -42 -130 -111q0 -4 -51 -32v-2h5 q156 26 210 26q34 -5 34 -28v-2q0 -28 -85 -211q-77 -199 -77 -261q0 -16 7 -17l36 7l6 -9q0 -51 -97 -51l-30 2v-2q-68 -128 -128 -327q-44 -146 -44 -406q0 -114 19 -251l-2 -2h-111l-6 7l-4 146v66q0 281 68 478q-85 -135 -92 -193h-104l-57 74v-2l27 -217q-1 -21 -6 -21 l-106 4l-4 7q-15 331 -28 374l2 2l119 -5q44 -53 98 -104l138 221q0 35 -151 75q-313 107 -510 199q-36 28 -36 41zM1130 1364l2 2l75 -2h42q7 0 60 -297l38 -240l-2 -3l-85 -2h-30l-6 7q-15 257 -28 257q-13 66 -66 278zM1152 1800q12 -31 89 -81q92 -53 191 -89 q68 -22 312 -79q50 82 79 119q62 11 62 15q20 175 51 210q104 229 104 262q0 14 -39 14h-97q-17 0 -117 -55l4 -125q83 -37 111 -64v-2q0 -17 -94 -17h-2l-4 -4l6 -41q-13 -4 -102 -12l-2 2v40q-206 -27 -206 -32q-69 -155 -72 -155q-81 30 -113 89l-13 37q-85 -15 -148 -32 zM1239 729v44l4 5h106q13 -9 13 -77l-2 -2h-2l-109 2h-4q-6 0 -6 28zM1343 2021q4 -138 17 -149q78 9 78 15q33 89 39 89l61 -2h5l4 -4l-30 -73l185 32v28q-83 63 -179 123q-35 -22 -123 -38l-57 -9v-12zM1347 2065q121 29 121 53l-2 2v3l2 2q-19 172 -40 238l-11 25 q-10 -12 -34 -112q-36 -129 -36 -211zM1364 1842q11 -36 28 -72h2l30 83zM1475 -225q0 5 125 17q23 -68 178 -253q58 -58 158 -117q79 -47 87 -47q12 0 40 175v2q0 106 -127 208q-189 110 -364 206l-4 17q0 26 77 117l138 276q129 -11 129 -23q-8 -64 -8 -102v-9 q0 -107 57 -255l-2 -2h-106q-19 0 -51 200h-5q-99 -176 -99 -200q0 -18 189 -115q141 -80 199 -127q81 -79 81 -240q0 -126 -64 -168h-6q-187 0 -268 74q-38 15 -178 153q-109 117 -176 213zM1551 2106l140 -66v25q0 34 -8 34q-43 0 -130 9h-2v-2zM1783 2182h2 q63 35 165 136v4l3 2l-3 3l-12 2h-7q-58 0 -144 -11zM1838 1173q32 25 32 74q19 91 40 126h13q83 0 83 -9v-2l-17 -83h2q28 19 59 19h9q86 0 123 -59l2 -13q0 -106 -64 -506q-11 -8 -19 -8q-19 0 -102 51zM1961 1143l74 -195h3q27 212 27 293v10l-4 5q-27 -19 -47 -51 q-10 -28 -17 -28l-30 15zM2167 157l2 2l75 -2h42q7 0 60 -297l38 -240l-2 -2l-85 -3h-30l-6 7q-15 257 -28 257q-13 66 -66 278zM2276 -433l4 4h106q13 -9 13 -77l-2 -2h-2l-109 2h-4q-6 0 -6 28v45zM2382 166l2 2l119 -4q44 -54 98 -104q181 291 259 403l125 26l2 -2v-3 q-199 -368 -199 -733v-55q0 -113 19 -251l-2 -2h-111l-6 7l-5 146v66q0 281 68 478q-84 -135 -91 -193h-104l-57 74v-2l27 -217q-1 -21 -6 -21l-106 4l-5 7q-14 331 -27 374zM2875 -34q32 25 32 74q19 91 40 126h13q83 0 83 -9v-2l-17 -83h2q28 19 59 19h9q86 0 123 -59 l2 -13q0 -105 -64 -506q-11 -8 -19 -8q-19 0 -102 51zM2998 -64l74 -195h2q28 212 28 293v11l-4 4q-27 -19 -47 -51q-11 -28 -17 -28l-30 15z" />
<glyph unicode="8" d="M-1738 132l6 4h104l5 -4v-19q0 -111 29 -221h3q39 99 57 125q101 -36 113 -36q36 312 78 463q32 112 51 149l117 -7l-59 -136q-81 -232 -81 -401q-7 -102 -13 -368l-2 -2h-2l-38 4h-5q-21 0 -72 -17h-2v3l4 19q-3 38 -53 112q-16 -70 -36 -70l-106 -17q-47 83 -73 234 q-25 123 -25 185zM-1438 -393q0 5 114 6v-2l15 -72q0 -4 -110 -9l-2 -2l-3 2l3 3v2q0 15 -17 72zM-1383 2405v2q0 6 136 51q144 45 225 45h36q99 0 125 -94q9 -28 9 -65q0 -167 -153 -411q-83 -101 -176 -101q-63 4 -70 14q164 75 240 255q46 158 46 253v47q0 76 -46 76 q-110 -13 -136 -36l-7 -208v-59q0 -78 15 -139l-6 -4l-100 -4q-4 19 -19 359l-24 -11zM-1266 132l6 4h104l4 -4v-19q0 -111 30 -221h2q39 99 58 125q101 -36 112 -36q36 312 79 463q32 112 51 149l117 -7l-60 -136q-81 -232 -81 -401q-6 -102 -12 -368l-2 -2h-3l-38 4h-4 q-21 0 -72 -17h-2v3l4 19q-4 38 -53 112q-17 -70 -36 -70l-107 -17q-46 83 -72 234q-25 123 -25 185zM-1243 1987l2 2h2l109 2h2l6 -7v-38l-4 -6l-68 -2h-40l-7 6v32zM-1128 1339l6 4h104l5 -4v-20q0 -110 29 -221h2q39 100 58 126q101 -36 112 -36q42 355 87 493l9 25 q-80 27 -115 89q-27 66 -27 158v48q0 233 89 502q45 8 68 8h2q20 0 25 -36q68 -298 68 -367q0 -50 -195 -75v-12q0 -152 49 -251h2q76 206 83 206l61 -2h5l4 -4q-19 -49 -77 -170l13 -2l96 -5l-60 -136q-80 -233 -80 -401q-7 -102 -13 -368l-2 -2h-2l-39 4h-4q-21 0 -72 -17 h-2v2l4 20q-4 38 -53 112q-17 -70 -36 -70l-106 -17q-47 83 -73 234q-25 123 -25 185zM-967 -393q0 5 115 6v-2l15 -72q0 -4 -111 -9l-2 -2l-2 2l2 3v2q0 15 -17 72zM-829 814q0 5 115 6v-2l15 -72q0 -4 -111 -9l-2 -2l-2 2l2 2v3q0 15 -17 72zM-797 2065q121 30 121 51 q-16 166 -36 234l-15 38q-10 -12 -34 -112q-36 -129 -36 -211zM-795 132l7 4h104l4 -4v-19q0 -111 30 -221h2q39 99 57 125q101 -36 113 -36q36 312 79 463q31 112 51 149l116 -7l-59 -136q-81 -232 -81 -401q-6 -102 -13 -368l-2 -2h-2l-38 4h-4q-22 0 -73 -17h-2v3l5 19 q-4 38 -54 112q-16 -70 -36 -70l-106 -17q-47 83 -72 234q-26 123 -26 185zM-657 616q45 257 49 300h-2l-42 4v4q49 0 49 15q29 156 53 363l-2 15h2l38 -6v2l-9 53l3 2h2l110 -4l9 -4q-17 -164 -17 -287q0 -170 40 -280v-3l-79 -8q-8 25 -21 117l-42 4h-13 q-43 -197 -43 -278v-15l-4 -4q-74 0 -81 10zM-584 2103q0 6 125 17q23 -68 179 -252q57 -58 157 -117q79 -47 87 -47q12 0 40 174v2q0 106 -127 209q-189 110 -364 206l-4 17q0 26 77 117l138 276q129 -11 129 -24q-8 -63 -8 -102v-8q0 -107 57 -255l-2 -2h-106 q-19 0 -51 200h-4q-100 -176 -100 -200q0 -19 189 -115q141 -81 200 -127q80 -79 80 -240q0 -126 -63 -168h-7q-186 0 -267 74q-39 15 -179 153q-108 116 -176 212zM-523 939h2l43 4l-11 132h-2zM-495 -393q0 5 115 6v-2l15 -72q0 -4 -111 -9l-2 -2l-2 2l2 3v2q0 15 -17 72z M-446 752l2 2h2l94 -2l10 -38l-2 -2h-2l-72 -2h-7l-10 -2zM-270 -544q6 17 49 53h4q17 0 53 -53v-4q-40 -55 -55 -55q-10 0 -51 55v4zM-263 982q0 5 125 17q23 -68 178 -253q58 -58 158 -117q79 -47 87 -47q12 0 40 174v3q0 105 -127 208q-189 110 -364 206l-4 17 q0 26 77 117l138 276q129 -11 129 -23q-8 -64 -8 -102v-9q0 -107 57 -255l-2 -2h-106q-19 0 -51 200h-5q-99 -176 -99 -200q0 -18 189 -115q141 -80 199 -127q81 -79 81 -240q0 -66 -21 -119h2l62 -5l-60 -136q-81 -232 -81 -401q-6 -102 -12 -368l-2 -2h-3l-38 4h-4 q-21 0 -72 -17h-2v3l4 19q-4 38 -53 112q-17 -70 -36 -70l-107 -17q-46 83 -72 234q-25 123 -25 185l6 4h104l4 -4v-19q0 -111 30 -221h2q39 99 58 125q101 -36 112 -36q46 387 92 501l17 60h-3q-160 0 -272 95q-162 131 -280 287zM108 2486l2 2l75 -2h42q7 0 60 -298 l38 -240l-2 -2l-85 -2h-30l-6 6q-15 258 -28 258q-13 66 -66 278zM208 -393q0 5 115 6v-2l15 -72q0 -4 -111 -9l-2 -2l-2 2l2 3v2q0 15 -17 72zM217 1851v44l4 4h106q13 -8 13 -76l-2 -2h-2l-109 2h-4q-6 0 -6 28zM329 2318v47q0 176 90 336q27 42 106 42h40q81 0 81 -19 l125 -181q0 -6 -114 -12l-117 148q-111 -204 -111 -352v-26q0 -162 187 -442q27 -37 43 -49q44 314 44 412v28l2 2v2q117 -21 143 -29v-3l-24 -163q0 -110 49 -208l-2 -2h-81q-5 -6 -19 -81q-9 -41 -38 -41q-42 -10 -68 -10h-11q-48 0 -119 98q-65 74 -123 184 q-83 173 -83 319zM380 -591q45 257 49 300h-2l-42 4v4q48 0 48 15q30 156 54 364l-3 15h3l38 -7v2l-9 53l2 3h3l110 -5l9 -4q-17 -163 -17 -287q0 -169 40 -280v-2l-79 -9q-8 25 -21 117l-42 4h-13q-43 -197 -43 -278v-15l-4 -4q-74 0 -81 10zM438 982q0 5 125 17 q23 -68 179 -253q57 -58 157 -117q79 -47 87 -47q12 0 40 174v3q0 105 -127 208q-189 110 -364 206l-4 17q0 26 77 117l138 276q129 -11 129 -23q-8 -64 -8 -102v-9q0 -107 57 -255l-2 -2h-106q-19 0 -51 200h-4q-100 -176 -100 -200q0 -18 189 -115q141 -80 200 -127 q80 -79 80 -240q0 -126 -63 -168h-7q-186 0 -267 74q-39 15 -179 153q-108 116 -176 213zM514 -268h2l43 5l-11 131h-2zM591 -455l2 2h2l93 -2l11 -38l-2 -2h-2l-72 -2h-7l-10 -2zM773 -225q0 5 126 17q23 -68 178 -253q58 -58 157 -117q80 -47 88 -47q11 0 40 175v2 q0 106 -128 208q-188 110 -363 206l-4 17q0 26 76 117l138 276q130 -11 130 -23q-8 -64 -8 -102v-9q0 -107 57 -255l-2 -2h-106q-19 0 -51 200h-5q-100 -176 -100 -200q0 -18 190 -115q140 -80 199 -127q81 -79 81 -240q0 -126 -64 -168h-6q-187 0 -268 74q-38 15 -178 153 q-109 117 -177 213zM858 2023q11 32 11 46v9q0 7 28 8h19q57 0 57 -10v-51l-2 -2v-2l-79 -3h-10l-22 -2zM860 2263q3 231 15 231h2l107 3l123 -200h2v44q0 108 72 238h92q4 0 4 -6q-51 -155 -51 -261q0 -78 53 -183l-144 -36q-119 200 -156 253q-5 -206 -8 -206h-4l-100 2 l-2 2zM1005 1802v10q0 22 244 43q0 3 45 6q-9 41 -9 92v48q0 233 90 502q45 8 68 8h2q20 0 25 -36q66 -292 66 -344h2l155 15v2l-8 157l-77 -8l-51 4v4l126 15l-11 92l2 2l79 -9l44 7l3 -3l-5 -76q174 23 247 23h8q45 0 45 -27v-2q0 -42 -130 -111q0 -4 -51 -32v-2h5 q156 26 210 26q34 -5 34 -28v-2q0 -28 -85 -211q-77 -199 -77 -261q0 -16 7 -17l36 7l6 -9q0 -51 -97 -51l-30 2v-2q-68 -128 -128 -327q-44 -146 -44 -406q0 -114 19 -251l-2 -2h-111l-6 7l-4 146v66q0 281 68 478q-85 -135 -92 -193h-104l-57 74v-2l27 -217q-1 -21 -6 -21 l-106 4l-4 7q-15 331 -28 374l2 2l119 -5q44 -53 98 -104l138 221q0 35 -151 75q-313 107 -510 199q-36 28 -36 41zM1130 1364l2 2l75 -2h42q7 0 60 -297l38 -240l-2 -3l-85 -2h-30l-6 7q-15 257 -28 257q-13 66 -66 278zM1152 1800q12 -31 89 -81q92 -53 191 -89 q68 -22 312 -79q50 82 79 119q62 11 62 15q20 175 51 210q104 229 104 262q0 14 -39 14h-97q-17 0 -117 -55l4 -125q83 -37 111 -64v-2q0 -17 -94 -17h-2l-4 -4l6 -41q-13 -4 -102 -12l-2 2v40q-206 -27 -206 -32q-69 -155 -72 -155q-81 30 -113 89l-13 37q-85 -15 -148 -32 zM1239 729v44l4 5h106q13 -9 13 -77l-2 -2h-2l-109 2h-4q-6 0 -6 28zM1343 2021q4 -138 17 -149q78 9 78 15q33 89 39 89l61 -2h5l4 -4l-30 -73l185 32v28q-83 63 -179 123q-35 -22 -123 -38l-57 -9v-12zM1347 2065q121 29 121 53l-2 2v3l2 2q-19 172 -40 238l-11 25 q-10 -12 -34 -112q-36 -129 -36 -211zM1364 1842q11 -36 28 -72h2l30 83zM1475 -225q0 5 125 17q23 -68 178 -253q58 -58 158 -117q79 -47 87 -47q12 0 40 175v2q0 106 -127 208q-189 110 -364 206l-4 17q0 26 77 117l138 276q129 -11 129 -23q-8 -64 -8 -102v-9 q0 -107 57 -255l-2 -2h-106q-19 0 -51 200h-5q-99 -176 -99 -200q0 -18 189 -115q141 -80 199 -127q81 -79 81 -240q0 -126 -64 -168h-6q-187 0 -268 74q-38 15 -178 153q-109 117 -176 213zM1551 2106l140 -66v25q0 34 -8 34q-43 0 -130 9h-2v-2zM1783 2182h2 q63 35 165 136v4l3 2l-3 3l-12 2h-7q-58 0 -144 -11zM1838 1173q32 25 32 74q19 91 40 126h13q83 0 83 -9v-2l-17 -83h2q28 19 59 19h9q86 0 123 -59l2 -13q0 -106 -64 -506q-11 -8 -19 -8q-19 0 -102 51zM1961 1143l74 -195h3q27 212 27 293v10l-4 5q-27 -19 -47 -51 q-10 -28 -17 -28l-30 15zM2167 157l2 2l75 -2h42q7 0 60 -297l38 -240l-2 -2l-85 -3h-30l-6 7q-15 257 -28 257q-13 66 -66 278zM2276 -433l4 4h106q13 -9 13 -77l-2 -2h-2l-109 2h-4q-6 0 -6 28v45zM2382 166l2 2l119 -4q44 -54 98 -104q181 291 259 403l125 26l2 -2v-3 q-199 -368 -199 -733v-55q0 -113 19 -251l-2 -2h-111l-6 7l-5 146v66q0 281 68 478q-84 -135 -91 -193h-104l-57 74v-2l27 -217q-1 -21 -6 -21l-106 4l-5 7q-14 331 -27 374zM2875 -34q32 25 32 74q19 91 40 126h13q83 0 83 -9v-2l-17 -83h2q28 19 59 19h9q86 0 123 -59 l2 -13q0 -105 -64 -506q-11 -8 -19 -8q-19 0 -102 51zM2998 -64l74 -195h2q28 212 28 293v11l-4 4q-27 -19 -47 -51q-11 -28 -17 -28l-30 15z" />
<glyph unicode="9" d="M-1738 132l6 4h104l5 -4v-19q0 -111 29 -221h3q39 99 57 125q101 -36 113 -36q36 312 78 463q32 112 51 149l117 -7l-59 -136q-81 -232 -81 -401q-7 -102 -13 -368l-2 -2h-2l-38 4h-5q-21 0 -72 -17h-2v3l4 19q-3 38 -53 112q-16 -70 -36 -70l-106 -17q-47 83 -73 234 q-25 123 -25 185zM-1438 -393q0 5 114 6v-2l15 -72q0 -4 -110 -9l-2 -2l-3 2l3 3v2q0 15 -17 72zM-1383 2405v2q0 6 136 51q144 45 225 45h36q99 0 125 -94q9 -28 9 -65q0 -167 -153 -411q-83 -101 -176 -101q-63 4 -70 14q164 75 240 255q46 158 46 253v47q0 76 -46 76 q-110 -13 -136 -36l-7 -208v-59q0 -78 15 -139l-6 -4l-100 -4q-4 19 -19 359l-24 -11zM-1266 132l6 4h104l4 -4v-19q0 -111 30 -221h2q39 99 58 125q101 -36 112 -36q36 312 79 463q32 112 51 149l117 -7l-60 -136q-81 -232 -81 -401q-6 -102 -12 -368l-2 -2h-3l-38 4h-4 q-21 0 -72 -17h-2v3l4 19q-4 38 -53 112q-17 -70 -36 -70l-107 -17q-46 83 -72 234q-25 123 -25 185zM-1243 1987l2 2h2l109 2h2l6 -7v-38l-4 -6l-68 -2h-40l-7 6v32zM-1128 1339l6 4h104l5 -4v-20q0 -110 29 -221h2q39 100 58 126q101 -36 112 -36q42 355 87 493l9 25 q-80 27 -115 89q-27 66 -27 158v48q0 233 89 502q45 8 68 8h2q20 0 25 -36q68 -298 68 -367q0 -50 -195 -75v-12q0 -152 49 -251h2q76 206 83 206l61 -2h5l4 -4q-19 -49 -77 -170l13 -2l96 -5l-60 -136q-80 -233 -80 -401q-7 -102 -13 -368l-2 -2h-2l-39 4h-4q-21 0 -72 -17 h-2v2l4 20q-4 38 -53 112q-17 -70 -36 -70l-106 -17q-47 83 -73 234q-25 123 -25 185zM-967 -393q0 5 115 6v-2l15 -72q0 -4 -111 -9l-2 -2l-2 2l2 3v2q0 15 -17 72zM-829 814q0 5 115 6v-2l15 -72q0 -4 -111 -9l-2 -2l-2 2l2 2v3q0 15 -17 72zM-797 2065q121 30 121 51 q-16 166 -36 234l-15 38q-10 -12 -34 -112q-36 -129 -36 -211zM-795 132l7 4h104l4 -4v-19q0 -111 30 -221h2q39 99 57 125q101 -36 113 -36q36 312 79 463q31 112 51 149l116 -7l-59 -136q-81 -232 -81 -401q-6 -102 -13 -368l-2 -2h-2l-38 4h-4q-22 0 -73 -17h-2v3l5 19 q-4 38 -54 112q-16 -70 -36 -70l-106 -17q-47 83 -72 234q-26 123 -26 185zM-657 616q45 257 49 300h-2l-42 4v4q49 0 49 15q29 156 53 363l-2 15h2l38 -6v2l-9 53l3 2h2l110 -4l9 -4q-17 -164 -17 -287q0 -170 40 -280v-3l-79 -8q-8 25 -21 117l-42 4h-13 q-43 -197 -43 -278v-15l-4 -4q-74 0 -81 10zM-584 2103q0 6 125 17q23 -68 179 -252q57 -58 157 -117q79 -47 87 -47q12 0 40 174v2q0 106 -127 209q-189 110 -364 206l-4 17q0 26 77 117l138 276q129 -11 129 -24q-8 -63 -8 -102v-8q0 -107 57 -255l-2 -2h-106 q-19 0 -51 200h-4q-100 -176 -100 -200q0 -19 189 -115q141 -81 200 -127q80 -79 80 -240q0 -126 -63 -168h-7q-186 0 -267 74q-39 15 -179 153q-108 116 -176 212zM-523 939h2l43 4l-11 132h-2zM-495 -393q0 5 115 6v-2l15 -72q0 -4 -111 -9l-2 -2l-2 2l2 3v2q0 15 -17 72z M-446 752l2 2h2l94 -2l10 -38l-2 -2h-2l-72 -2h-7l-10 -2zM-270 -544q6 17 49 53h4q17 0 53 -53v-4q-40 -55 -55 -55q-10 0 -51 55v4zM-263 982q0 5 125 17q23 -68 178 -253q58 -58 158 -117q79 -47 87 -47q12 0 40 174v3q0 105 -127 208q-189 110 -364 206l-4 17 q0 26 77 117l138 276q129 -11 129 -23q-8 -64 -8 -102v-9q0 -107 57 -255l-2 -2h-106q-19 0 -51 200h-5q-99 -176 -99 -200q0 -18 189 -115q141 -80 199 -127q81 -79 81 -240q0 -66 -21 -119h2l62 -5l-60 -136q-81 -232 -81 -401q-6 -102 -12 -368l-2 -2h-3l-38 4h-4 q-21 0 -72 -17h-2v3l4 19q-4 38 -53 112q-17 -70 -36 -70l-107 -17q-46 83 -72 234q-25 123 -25 185l6 4h104l4 -4v-19q0 -111 30 -221h2q39 99 58 125q101 -36 112 -36q46 387 92 501l17 60h-3q-160 0 -272 95q-162 131 -280 287zM108 2486l2 2l75 -2h42q7 0 60 -298 l38 -240l-2 -2l-85 -2h-30l-6 6q-15 258 -28 258q-13 66 -66 278zM208 -393q0 5 115 6v-2l15 -72q0 -4 -111 -9l-2 -2l-2 2l2 3v2q0 15 -17 72zM217 1851v44l4 4h106q13 -8 13 -76l-2 -2h-2l-109 2h-4q-6 0 -6 28zM329 2318v47q0 176 90 336q27 42 106 42h40q81 0 81 -19 l125 -181q0 -6 -114 -12l-117 148q-111 -204 -111 -352v-26q0 -162 187 -442q27 -37 43 -49q44 314 44 412v28l2 2v2q117 -21 143 -29v-3l-24 -163q0 -110 49 -208l-2 -2h-81q-5 -6 -19 -81q-9 -41 -38 -41q-42 -10 -68 -10h-11q-48 0 -119 98q-65 74 -123 184 q-83 173 -83 319zM380 -591q45 257 49 300h-2l-42 4v4q48 0 48 15q30 156 54 364l-3 15h3l38 -7v2l-9 53l2 3h3l110 -5l9 -4q-17 -163 -17 -287q0 -169 40 -280v-2l-79 -9q-8 25 -21 117l-42 4h-13q-43 -197 -43 -278v-15l-4 -4q-74 0 -81 10zM438 982q0 5 125 17 q23 -68 179 -253q57 -58 157 -117q79 -47 87 -47q12 0 40 174v3q0 105 -127 208q-189 110 -364 206l-4 17q0 26 77 117l138 276q129 -11 129 -23q-8 -64 -8 -102v-9q0 -107 57 -255l-2 -2h-106q-19 0 -51 200h-4q-100 -176 -100 -200q0 -18 189 -115q141 -80 200 -127 q80 -79 80 -240q0 -126 -63 -168h-7q-186 0 -267 74q-39 15 -179 153q-108 116 -176 213zM514 -268h2l43 5l-11 131h-2zM591 -455l2 2h2l93 -2l11 -38l-2 -2h-2l-72 -2h-7l-10 -2zM773 -225q0 5 126 17q23 -68 178 -253q58 -58 157 -117q80 -47 88 -47q11 0 40 175v2 q0 106 -128 208q-188 110 -363 206l-4 17q0 26 76 117l138 276q130 -11 130 -23q-8 -64 -8 -102v-9q0 -107 57 -255l-2 -2h-106q-19 0 -51 200h-5q-100 -176 -100 -200q0 -18 190 -115q140 -80 199 -127q81 -79 81 -240q0 -126 -64 -168h-6q-187 0 -268 74q-38 15 -178 153 q-109 117 -177 213zM858 2023q11 32 11 46v9q0 7 28 8h19q57 0 57 -10v-51l-2 -2v-2l-79 -3h-10l-22 -2zM860 2263q3 231 15 231h2l107 3l123 -200h2v44q0 108 72 238h92q4 0 4 -6q-51 -155 -51 -261q0 -78 53 -183l-144 -36q-119 200 -156 253q-5 -206 -8 -206h-4l-100 2 l-2 2zM1005 1802v10q0 22 244 43q0 3 45 6q-9 41 -9 92v48q0 233 90 502q45 8 68 8h2q20 0 25 -36q66 -292 66 -344h2l155 15v2l-8 157l-77 -8l-51 4v4l126 15l-11 92l2 2l79 -9l44 7l3 -3l-5 -76q174 23 247 23h8q45 0 45 -27v-2q0 -42 -130 -111q0 -4 -51 -32v-2h5 q156 26 210 26q34 -5 34 -28v-2q0 -28 -85 -211q-77 -199 -77 -261q0 -16 7 -17l36 7l6 -9q0 -51 -97 -51l-30 2v-2q-68 -128 -128 -327q-44 -146 -44 -406q0 -114 19 -251l-2 -2h-111l-6 7l-4 146v66q0 281 68 478q-85 -135 -92 -193h-104l-57 74v-2l27 -217q-1 -21 -6 -21 l-106 4l-4 7q-15 331 -28 374l2 2l119 -5q44 -53 98 -104l138 221q0 35 -151 75q-313 107 -510 199q-36 28 -36 41zM1130 1364l2 2l75 -2h42q7 0 60 -297l38 -240l-2 -3l-85 -2h-30l-6 7q-15 257 -28 257q-13 66 -66 278zM1152 1800q12 -31 89 -81q92 -53 191 -89 q68 -22 312 -79q50 82 79 119q62 11 62 15q20 175 51 210q104 229 104 262q0 14 -39 14h-97q-17 0 -117 -55l4 -125q83 -37 111 -64v-2q0 -17 -94 -17h-2l-4 -4l6 -41q-13 -4 -102 -12l-2 2v40q-206 -27 -206 -32q-69 -155 -72 -155q-81 30 -113 89l-13 37q-85 -15 -148 -32 zM1239 729v44l4 5h106q13 -9 13 -77l-2 -2h-2l-109 2h-4q-6 0 -6 28zM1343 2021q4 -138 17 -149q78 9 78 15q33 89 39 89l61 -2h5l4 -4l-30 -73l185 32v28q-83 63 -179 123q-35 -22 -123 -38l-57 -9v-12zM1347 2065q121 29 121 53l-2 2v3l2 2q-19 172 -40 238l-11 25 q-10 -12 -34 -112q-36 -129 -36 -211zM1364 1842q11 -36 28 -72h2l30 83zM1475 -225q0 5 125 17q23 -68 178 -253q58 -58 158 -117q79 -47 87 -47q12 0 40 175v2q0 106 -127 208q-189 110 -364 206l-4 17q0 26 77 117l138 276q129 -11 129 -23q-8 -64 -8 -102v-9 q0 -107 57 -255l-2 -2h-106q-19 0 -51 200h-5q-99 -176 -99 -200q0 -18 189 -115q141 -80 199 -127q81 -79 81 -240q0 -126 -64 -168h-6q-187 0 -268 74q-38 15 -178 153q-109 117 -176 213zM1551 2106l140 -66v25q0 34 -8 34q-43 0 -130 9h-2v-2zM1783 2182h2 q63 35 165 136v4l3 2l-3 3l-12 2h-7q-58 0 -144 -11zM1838 1173q32 25 32 74q19 91 40 126h13q83 0 83 -9v-2l-17 -83h2q28 19 59 19h9q86 0 123 -59l2 -13q0 -106 -64 -506q-11 -8 -19 -8q-19 0 -102 51zM1961 1143l74 -195h3q27 212 27 293v10l-4 5q-27 -19 -47 -51 q-10 -28 -17 -28l-30 15zM2167 157l2 2l75 -2h42q7 0 60 -297l38 -240l-2 -2l-85 -3h-30l-6 7q-15 257 -28 257q-13 66 -66 278zM2276 -433l4 4h106q13 -9 13 -77l-2 -2h-2l-109 2h-4q-6 0 -6 28v45zM2382 166l2 2l119 -4q44 -54 98 -104q181 291 259 403l125 26l2 -2v-3 q-199 -368 -199 -733v-55q0 -113 19 -251l-2 -2h-111l-6 7l-5 146v66q0 281 68 478q-84 -135 -91 -193h-104l-57 74v-2l27 -217q-1 -21 -6 -21l-106 4l-5 7q-14 331 -27 374zM2875 -34q32 25 32 74q19 91 40 126h13q83 0 83 -9v-2l-17 -83h2q28 19 59 19h9q86 0 123 -59 l2 -13q0 -105 -64 -506q-11 -8 -19 -8q-19 0 -102 51zM2998 -64l74 -195h2q28 212 28 293v11l-4 4q-27 -19 -47 -51q-11 -28 -17 -28l-30 15z" />
<glyph unicode=":" horiz-adv-x="557" d="M129 136q0 15 16 31l82 84q15 14 29 14q13 0 31 -16l80 -86q12 -16 12 -29q0 -15 -14 -31l-80 -88q-20 -20 -29 -20q-16 0 -29 14l-88 101q-10 13 -10 26zM129 829q0 15 16 31l82 84q15 14 29 14q13 0 31 -16l80 -86q12 -16 12 -29q0 -15 -14 -31l-80 -88 q-20 -20 -29 -20q-16 0 -29 14l-88 101q-10 13 -10 26z" />
<glyph unicode=";" horiz-adv-x="557" d="M119 91v42l119 125q44 0 88.5 -65.5t44.5 -151.5q0 -109 -71 -226.5t-139 -117.5v43q73 43 87 190q0 119 -129 161zM129 828q0 15 16 31l82 84q15 14 29 14q13 0 31 -16l80 -86q12 -16 12 -29q0 -15 -14 -31l-80 -88q-20 -20 -29 -20q-16 0 -29 14l-88 101q-10 13 -10 26 z" />
<glyph unicode="&#x3c;" d="M87 674v83l840 484v-167l-625 -359l625 -355v-167z" />
<glyph unicode="=" d="M87 491v140h840v-140h-840zM87 803v140h840v-140h-840z" />
<glyph unicode="&#x3e;" d="M87 193v167l625 355l-625 359v167l840 -484v-83z" />
<glyph unicode="?" horiz-adv-x="1232" d="M0 1158v16q0 64 260 336q309 358 372 472q128 219 128 360q0 176 -124 368l256 128q148 -203 148 -452v-4q0 -424 -728 -1096h-4v-8q0 -108 248 -108l380 12q256 -17 256 -88v-16q0 -34 -324 -476q-290 -402 -344 -564q-20 -54 -20 -112v-8l-4 -4l4 -4v-20q0 -68 44 -124 q-21 -20 -284 -132q-36 45 -36 148v52q0 269 148 508q145 255 500 684h-4l-196 -4q-509 0 -632 64q-44 37 -44 72zM252 -602l292 168l4 -4v-4l-4 -48q28 -616 100 -1204l64 -428l-328 -168l-4 4v4q0 178 -112 1380z" />
<glyph unicode="@" horiz-adv-x="2019" d="M100 508q0 242 124 464.5t345.5 342t456.5 119.5q362 0 609 -230t247 -566q0 -270 -176 -439q-175 -168 -346 -170q-63 1 -100.5 18t-61.5 54q-29 -37 -82 -64.5t-133 -27.5q-144 0 -256.5 100.5t-112.5 233.5q1 87 53 166.5t132.5 115t173.5 49.5q67 16 110 42.5 t43 74.5q-2 69 -41 125t-129 56q-72 0 -121.5 -59t-50.5 -125h-45v159q0 20 72 40q73 20 178 20q109 -2 193.5 -64.5t84.5 -157.5v-589q0 -117 94 -117q185 35 267 191.5t82 382.5q-20 335 -232 540q-197 188 -480 188q-205 0 -392.5 -137.5t-269.5 -355.5 q-67 -178 -67 -361q0 -313 129.5 -511.5t305 -290.5t318.5 -92q274 0 575 208v-75q-263 -184 -571 -184q-240 0 -461 122.5t-343 342t-122 461.5zM753 343q0 -107 64 -194t183 -87q97 5 126 167v476q-54 -63 -154 -83q-83 -10 -151 -80t-68 -199z" />
<glyph unicode="A" horiz-adv-x="788" d="M0 20q120 688 120 724h-4l-108 12v8q120 7 120 20q92 526 128 892l-8 32h4l96 -20v4q0 38 -20 132l4 4h4l268 -12l16 -8q-40 -388 -40 -668q0 -459 100 -696l-192 -20q-16 59 -48 280q-56 12 -136 12q-104 -491 -104 -692l4 -20l-4 -4h-4q-196 12 -196 20zM320 796 l108 12l-24 332q-8 0 -68 -272zM504 352l4 4l232 -8l24 -88l-4 -4h-4l-216 -8z" />
<glyph unicode="B" horiz-adv-x="1411" d="M-64 194v8h4l156 12q0 229 -56 688l-44 520l-4 4l4 4l200 4h88l4 -4h4l-12 -88h4l104 8q250 0 528 -192q40 -40 40 -60v-16q0 -74 -420 -148v-4q617 -132 832 -232q36 -31 36 -56v-16q0 -43 -196 -160q-458 -316 -720 -316h-52q-40 0 -88 12l20 -48l-4 -4l-264 32v28 q-131 7 -164 24zM268 894l4 -52q0 -332 52 -604q354 0 872 420v4q-551 208 -724 208q-124 24 -192 24h-12zM268 974h24q157 0 364 100v8h4q0 65 -388 168l-4 -48v-228z" />
<glyph unicode="C" horiz-adv-x="847" d="M0 1276v48q0 381 196 740q93 160 268 160h96q155 0 204 -120l4 -36l76 24v-4q-63 -118 -84 -140h-236l-4 4h-4l4 4v12q0 26 -32 88h-8q-228 -446 -228 -656v-16q0 -210 92 -428h4q45 0 72 252q34 84 132 84q83 0 128 -32q-148 -532 -160 -556q-123 -24 -272 -36 q-64 0 -64 44q-184 235 -184 564z" />
<glyph unicode="D" horiz-adv-x="1264" d="M0 1632q582 228 900 228h32q344 0 344 -380q0 -374 -324 -924q-208 -304 -464 -304q-74 0 -168 28v4q312 136 496 448q90 122 140 384q56 239 56 412v56q0 216 -112 216t-328 -76v-4q-20 -322 -20 -568q0 -298 40 -416q0 -7 -256 -16l-4 4v4l-40 852h-4l-52 -24 q-217 60 -236 76zM344 620l4 4l108 4h164l8 -8v-100q0 -12 -92 -12h-180l-8 8v76z" />
<glyph unicode="E" horiz-adv-x="657" d="M0 587v45q0 318 77 731q83 327 136 492q97 23 148 23h14q55 0 55 -50q173 -728 173 -893v-21q0 -72 -130 -109q-85 -34 -338 -69q0 -421 123 -638h2q96 260 192 497l172 -8l3 -2v-3q0 -10 -287 -630h-3q-183 66 -255 192q-82 136 -82 443zM141 805h2q242 62 290 109l8 11 q-52 537 -130 669q-106 -323 -154 -630q-16 -121 -16 -159z" />
<glyph unicode="F" horiz-adv-x="1079" d="M0 1024q92 85 388 204q-192 489 -192 752v60q0 346 276 704l264 -16l368 -508l-296 -60q-80 156 -208 324q-25 24 -36 24q-116 -258 -116 -472q0 -186 180 -688q7 -40 16 -40q163 32 352 32l148 -4v-8q-188 0 -468 -132q180 -606 180 -804l4 -12l-4 -4h-284l-8 8v92 q0 265 -108 580h-4q-73 -49 -200 -160q-252 122 -252 128zM484 4v4q28 56 60 204l4 4h308l8 -8q-20 -196 -40 -196l-308 -8l-28 -4z" />
<glyph unicode="G" horiz-adv-x="1310" d="M0 1547v44q0 427 188 788q78 148 216 148l84 4h44q216 0 216 -28l312 -452q0 -8 -272 -28l-280 360q-272 -477 -272 -880q0 -416 432 -1064q73 -103 124 -152q108 794 108 1008v52l-4 4v4l4 4h4q336 -64 340 -72l-56 -388q0 -290 116 -508l-4 -4h-204q-47 -280 -88 -280 q-152 -36 -216 -36q-101 0 -184 104q-209 225 -328 436q-280 473 -280 936z" />
<glyph unicode="H" horiz-adv-x="1406" d="M-142 500v4q297 168 456 168h80l40 -4l4 4q-5 64 -24 64l-112 84v4l120 24l-4 88v68q0 257 40 524l4 4h296l4 -4h4q-92 -435 -92 -624h4l76 12q183 -53 196 -64l-276 -64v-80q20 -19 96 -56v-8h-44l-48 -4q0 -148 132 -536v-4q-236 35 -236 60q-108 252 -108 340l-24 104 q-167 -37 -252 -116q0 -12 -20 -24zM482 1684q25 136 36 136l320 4l4 -4v-4q-36 -133 -44 -136h-308l-4 4h-4zM990 1136v80q12 587 40 620l312 -12v-4q-100 -551 -100 -672q0 -452 76 -1136q35 -188 68 -264h-268q-15 0 -56 336q-72 554 -72 1052z" />
<glyph unicode="I" horiz-adv-x="559" d="M0 1817l4 4h4l284 -4q104 -506 228 -1288l-4 -4l-220 -4h-60q-8 0 -8 12q-37 576 -56 576q-72 324 -172 708zM260 405l4 4h264q17 0 28 -184h-4l-284 8l-4 12z" />
<glyph unicode="J" horiz-adv-x="1401" d="M-312 1721v8l20 4q303 0 964 180q1575 344 2152 344h48q191 0 276 -80v-16q-27 -40 -324 -116q-79 -23 -312 -176q-56 -49 -56 -96q0 -33 40 -92v-4q0 -11 -244 -32l-24 -4q-72 66 -72 140q0 189 500 352v4q-84 20 -204 20h-56q-380 0 -1432 -272q-697 -176 -1072 -240 h-8q-98 0 -196 76zM-8 877q45 127 64 160l68 -4h40l168 -4l4 -4q-34 -160 -44 -160l-284 4h-8zM40 653v24q0 13 244 20q101 -376 288 -504q159 -132 336 -132q65 18 132 152q80 191 80 456v112q0 395 -140 1060h4l276 -8q24 0 32 -116q100 -622 100 -996v-108 q0 -554 -352 -660l-96 -8q-237 0 -568 188q-229 147 -324 428z" />
<glyph unicode="K" horiz-adv-x="1191" d="M-188 -585q0 209 328 704q160 256 592 908q82 134 136 256h-4q-203 -20 -380 -128q-48 -15 -116 -108q0 -56 100 -404l-4 -4h-184q-27 39 -132 428q-66 -20 -100 -20l-4 4v4q76 103 76 116q-116 504 -116 668l4 4h284q8 0 8 -12q0 -163 12 -308h4q36 88 72 208h4 q254 -20 284 -28q-72 -166 -192 -340v-40q0 -41 -12 -60h4q429 172 572 172h16q88 0 88 -56q0 -148 -532 -868q-163 -237 -412 -700q-104 -228 -104 -372q0 -82 44 -172l860 592l252 20v-4q-233 -242 -376 -352q-440 -352 -668 -352h-4l-276 4q-124 69 -124 216v24z" />
<glyph unicode="L" horiz-adv-x="989" d="M0 686q120 616 140 752q0 92 -60 388l4 4h4q324 -3 324 -8q0 -329 -120 -904l-28 -148q22 -56 36 -60l388 56q-99 203 -244 252v8h4l328 48q204 -251 204 -308q0 -38 -648 -108l-168 -8q-164 6 -164 36z" />
<glyph unicode="M" horiz-adv-x="1292" d="M0 1838l4 4l292 -12q2 -18 224 -248h4q578 918 620 968l304 60l4 -4q-476 -901 -476 -1652l-4 -180q0 -350 44 -660l-4 -4h-268l-8 8q-12 202 -12 376v108q0 716 168 1184v4h-4q-206 -337 -220 -472h-8l-244 -4l-140 192l64 -476l4 -64l-8 -48l-264 12q-8 15 -40 688 q-16 173 -32 220z" />
<glyph unicode="N" horiz-adv-x="1058" d="M0 700v4q28 76 28 120v16q0 18 72 20q165 0 172 -20v-128l-8 -8l-260 -8zM8 1248v60q6 528 28 528l264 8l300 -484h4v4l-4 80q0 275 172 596h224l8 -8q-124 -372 -124 -620q0 -189 120 -444h16l-8 -8l-4 4h-4l-336 -88q-364 608 -376 616v-4l-12 -468q-2 -32 -12 -32 l-244 8l-4 4v4z" />
<glyph unicode="O" horiz-adv-x="861" d="M0 1356q72 63 72 144q67 305 100 340q232 -6 232 -20l-48 -212h4q75 52 156 52q196 0 296 -120q16 -27 16 -48v-28q0 -209 -148 -1180q-14 -22 -44 -28q-70 13 -244 116zM292 1288l184 -472h4q68 532 68 704q0 44 -12 44q-69 -45 -116 -136q-25 -52 -36 -56l-72 36z" />
<glyph unicode="P" horiz-adv-x="1120" d="M0 1724q33 8 40 36q29 36 132 36q332 32 564 32h68q404 0 404 -116q0 -87 -224 -184q-167 -72 -468 -132l-200 -36q35 -157 120 -396v-4l-284 -12l-4 4l4 12q0 145 -152 760zM276 1628q0 -67 20 -184q230 31 564 216l44 40v8q0 48 -488 48l-132 -4l-8 -84v-40z" />
<glyph unicode="Q" horiz-adv-x="1017" d="M0 1559v40q0 209 136 244l32 4q476 -17 476 -44q155 -128 224 -268q140 -249 140 -460q0 -190 -148 -376q-83 -76 -200 -76q-356 16 -356 40q-127 173 -200 344q-104 280 -104 552zM276 1603q0 -132 212 -824q21 -55 40 -80q252 180 252 404q0 176 -188 472 q-103 140 -196 172q-66 -15 -100 -60q-20 -44 -20 -76v-8z" />
<glyph unicode="R" horiz-adv-x="1672" d="M-1108 180v16q0 35 164 64q429 40 872 112l640 112l-4 28v44q-71 56 -548 376l-16 16v4q64 0 544 52l-20 384l-180 -24l-132 12v8l308 36q0 43 -28 224h4q99 -16 200 -20l100 16v-4l-12 -184q468 56 584 56q136 0 136 -68v-8q0 -75 -184 -184l-264 -164h4q370 64 520 64 h4q84 0 84 -76q0 -56 -160 -392q-228 -556 -228 -732q4 -44 16 -44q50 16 84 16l16 -16q0 -116 -172 -116l-40 -4q-180 0 -180 68l-4 24q46 360 88 452q284 613 284 668l4 24q0 44 -72 44l-76 4h-176q-41 0 -164 -72q-117 -56 -120 -64v-36l8 -264q238 -117 264 -148v-12 q0 -32 -236 -40l-4 -4v-4l16 -100l-240 -28l-4 4v92l-8 8q-1053 -148 -1316 -224l-4 -4v-4q13 -52 176 -164q259 -163 552 -256q299 -84 816 -200q92 -30 92 -48v-28q0 -40 -72 -140l-272 36v12q16 0 28 40q0 89 -320 172q-886 303 -1256 488q-96 66 -96 100zM190 912 l352 -168v4q-4 144 -12 144q-118 0 -336 24h-4v-4zM754 1084q162 98 360 280q52 47 52 72l-24 8h-32q-139 0 -344 -28v-4z" />
<glyph unicode="S" horiz-adv-x="1658" d="M9 901v8l300 32q38 -128 336 -504q186 -213 264 -248q190 -135 404 -248q28 5 28 28q76 320 76 376v32q0 227 -272 468q-347 211 -896 512q-16 22 -16 40q0 71 164 256q60 96 344 684l4 4h4q308 -28 308 -48q-24 -146 -24 -268q0 -221 116 -564q24 -35 24 -52h-264 q-18 0 -72 216l-48 264h-4q-224 -374 -244 -480v-4q0 -40 224 -152q411 -223 616 -360q284 -177 284 -632q0 -309 -144 -408l-20 -4q-396 0 -580 132q-446 285 -912 920z" />
<glyph unicode="T" horiz-adv-x="1350" d="M0 1695q0 11 256 32l376 40v4q0 80 16 80h52l256 -8l4 -4v-4l-8 -36q618 52 836 52l140 -8v-4l-4 -4v-4h20v-8h-4q-563 -44 -1004 -100q-12 -64 -20 -216q0 -229 140 -632q100 -305 144 -548l-4 -4h-4l-272 -16l-4 12q0 290 -140 644q-136 493 -136 660l-8 56l-476 -84 l-136 56v8h28z" />
<glyph unicode="U" horiz-adv-x="829" d="M0 1527v32q0 144 68 268l292 -8v-8q-104 -146 -104 -300q0 -208 268 -604h4q24 162 24 272v76q0 188 -92 552q105 20 236 20h28l4 -4h4l-4 -20l44 -596l4 -188q0 -364 -20 -364l-284 -32q-472 503 -472 904z" />
<glyph unicode="V" horiz-adv-x="774" d="M0 1710l4 4h4l312 8q24 -63 68 -228h8q0 71 104 344h96l160 -4l4 -4q-68 -157 -112 -356q-40 -222 -104 -664l-280 -64v4l-24 260z" />
<glyph unicode="W" horiz-adv-x="1232" d="M0 1760l12 4l256 4l4 -4v-12q0 -325 76 -572h4q119 288 136 304q171 -68 260 -88h16q52 495 120 836q96 424 184 628h4q280 -8 280 -16q-209 -377 -312 -956q-32 -89 -52 -1044l-8 -168l-4 -4q-42 12 -84 12h-32q-44 0 -168 -44v4l12 32v16q0 72 -124 272h-4 q-51 -164 -68 -164l-272 -44q-69 114 -132 352q-104 485 -104 652zM720 500l4 4h4l264 12l36 -180l-4 -4h-4l-256 -16l-4 -4l-4 4l4 4v4q0 46 -40 176z" />
<glyph unicode="X" horiz-adv-x="1177" d="M0 1738v8l316 60l156 -260q62 245 108 292h112l220 -4v-4q-128 -120 -188 -236q-70 -140 -100 -336q103 -194 244 -392q105 -141 292 -352q0 -10 -224 -56h-8q-219 425 -348 596q-9 -84 -28 -84h-28l-244 -12l-4 4l108 352q-151 179 -384 424z" />
<glyph unicode="Y" horiz-adv-x="1705" d="M-2968 995v20q0 233 448 308q131 20 264 20q817 0 2460 -540l116 -48q381 92 844 180q52 521 120 912h-4l-156 -32q-320 304 -328 384q-68 139 -68 320q5 144 20 144q288 -9 288 -16q-10 0 -16 -136q0 -363 216 -528q96 91 164 340q60 211 116 684l232 36l4 -4l4 -220 v-16q0 -401 -216 -800q-72 -322 -160 -1028l480 88l236 -44v-8h-48q-208 0 -676 -100q-60 -501 -60 -748v-96q0 -72 8 -120l-12 -4l-272 -8l-12 -4q-181 406 -840 716q-952 -224 -1508 -316q-258 -44 -516 -44q-840 0 -1096 564q-32 81 -32 144zM-2708 947q0 -208 328 -460 q249 -144 652 -144q625 0 1816 352q-144 80 -456 216q-246 104 -728 208q-683 132 -1212 132q-282 0 -380 -188q-20 -67 -20 -100v-16zM432 707q187 -99 328 -200q245 -198 320 -352h4q44 219 76 716z" />
<glyph unicode="Z" horiz-adv-x="2597" d="M0 1232v24q0 203 516 508q398 277 792 640q70 81 72 104q0 20 -76 20h-80q-199 0 -656 -44v-4l100 -296q0 -8 -292 -12q-124 363 -124 388h28q0 12 24 12q933 20 1296 20h68q31 0 36 -16v-20q-26 -112 -372 -388q-533 -348 -888 -636q-240 -224 -240 -260 q-52 -65 -52 -112l1752 -840q-613 685 -680 840q26 12 232 52q274 -393 588 -768q261 -291 360 -356l60 -44l-324 -44q-380 260 -888 480l-896 400q-169 80 -280 180q-76 82 -76 172zM1104 1488l4 4l208 4h72l8 -8l12 -236l-4 -4h-36l-248 -4l-4 4v4z" />
<glyph unicode="[" horiz-adv-x="758" />
<glyph unicode="\" horiz-adv-x="569" />
<glyph unicode="]" horiz-adv-x="758" />
<glyph unicode="^" />
<glyph unicode="_" horiz-adv-x="1024" d="M0 -100h1024v-60h-1024v60z" />
<glyph unicode="`" horiz-adv-x="1024" d="M212 1363q0 31 20.5 51t53.5 20q20 0 40.5 -12t55.5 -47l291 -296h-69l-330 202q-31 20 -46.5 40t-15.5 42z" />
<glyph unicode="a" horiz-adv-x="922" d="M0 20q120 688 120 724h-4l-108 12v8q120 7 120 20q92 526 128 892l-8 32h4l96 -20v4q0 38 -20 132l4 4h4l268 -12l16 -8q-40 -388 -40 -668q0 -459 100 -696l-192 -20q-16 59 -48 280q-56 12 -136 12q-104 -491 -104 -692l4 -20l-4 -4h-4q-196 12 -196 20zM320 796 l108 12l-24 332q-8 0 -68 -272zM504 352l4 4l232 -8l24 -88l-4 -4h-4l-216 -8z" />
<glyph unicode="b" horiz-adv-x="1424" d="M-64 194v8h4l156 12q0 229 -56 688l-44 520l-4 4l4 4l200 4h88l4 -4h4l-12 -88h4l104 8q250 0 528 -192q40 -40 40 -60v-16q0 -74 -420 -148v-4q617 -132 832 -232q36 -31 36 -56v-16q0 -43 -196 -160q-458 -316 -720 -316h-52q-40 0 -88 12l20 -48l-4 -4l-264 32v28 q-131 7 -164 24zM268 894l4 -52q0 -332 52 -604q354 0 872 420v4q-551 208 -724 208q-124 24 -192 24h-12zM268 974h24q157 0 364 100v8h4q0 65 -388 168l-4 -48v-228z" />
<glyph unicode="c" horiz-adv-x="879" d="M0 905v48q0 381 196 740q93 160 268 160h96q155 0 204 -120l4 -36l76 24v-4q-63 -118 -84 -140h-236l-4 4h-4l4 4v12q0 26 -32 88h-8q-228 -446 -228 -656v-16q0 -210 92 -428h4q45 0 72 252q34 84 132 84q83 0 128 -32q-148 -532 -160 -556q-123 -24 -272 -36 q-64 0 -64 44q-184 235 -184 564z" />
<glyph unicode="d" horiz-adv-x="1388" d="M0 1632q582 228 900 228h32q344 0 344 -380q0 -374 -324 -924q-208 -304 -464 -304q-74 0 -168 28v4q312 136 496 448q90 122 140 384q56 239 56 412v56q0 216 -112 216t-328 -76v-4q-20 -322 -20 -568q0 -298 40 -416q0 -7 -256 -16l-4 4v4l-40 852h-4l-52 -24 q-217 60 -236 76zM344 620l4 4l108 4h164l8 -8v-100q0 -12 -92 -12h-180l-8 8v76z" />
<glyph unicode="e" horiz-adv-x="637" d="M0 587v45q0 318 77 731q83 327 136 492q97 23 148 23h14q55 0 55 -50q173 -728 173 -893v-21q0 -72 -130 -109q-85 -34 -338 -69q0 -421 123 -638h2q96 260 192 497l172 -8l3 -2v-3q0 -10 -287 -630h-3q-183 66 -255 192q-82 136 -82 443zM141 805h2q242 62 290 109l8 11 q-52 537 -130 669q-106 -323 -154 -630q-16 -121 -16 -159z" />
<glyph unicode="f" horiz-adv-x="1058" d="M0 1024q92 85 388 204q-192 489 -192 752v60q0 346 276 704l264 -16l368 -508l-296 -60q-80 156 -208 324q-25 24 -36 24q-116 -258 -116 -472q0 -186 180 -688q7 -40 16 -40q163 32 352 32l148 -4v-8q-188 0 -468 -132q180 -606 180 -804l4 -12l-4 -4h-284l-8 8v92 q0 265 -108 580h-4q-73 -49 -200 -160q-252 122 -252 128zM484 4v4q28 56 60 204l4 4h308l8 -8q-20 -196 -40 -196l-308 -8l-28 -4z" />
<glyph unicode="g" horiz-adv-x="1287" d="M15 1450v44q0 427 188 788q78 148 216 148l84 4h44q216 0 216 -28l312 -452q0 -8 -272 -28l-280 360q-272 -477 -272 -880q0 -416 432 -1064q73 -103 124 -152q108 794 108 1008v52l-4 4v4l4 4h4q336 -64 340 -72l-56 -388q0 -290 116 -508l-4 -4h-204q-47 -280 -88 -280 q-152 -36 -216 -36q-101 0 -184 104q-209 225 -328 436q-280 473 -280 936z" />
<glyph unicode="h" horiz-adv-x="1324" d="M-142 500v4q297 168 456 168h80l40 -4l4 4q-5 64 -24 64l-112 84v4l120 24l-4 88v68q0 257 40 524l4 4h296l4 -4h4q-92 -435 -92 -624h4l76 12q183 -53 196 -64l-276 -64v-80q20 -19 96 -56v-8h-44l-48 -4q0 -148 132 -536v-4q-236 35 -236 60q-108 252 -108 340l-24 104 q-167 -37 -252 -116q0 -12 -20 -24zM482 1684q25 136 36 136l320 4l4 -4v-4q-36 -133 -44 -136h-308l-4 4h-4zM990 1136v80q12 587 40 620l312 -12v-4q-100 -551 -100 -672q0 -452 76 -1136q35 -188 68 -264h-268q-15 0 -56 336q-72 554 -72 1052z" />
<glyph unicode="i" horiz-adv-x="514" d="M0 1817l4 4h4l284 -4q104 -506 228 -1288l-4 -4l-220 -4h-60q-8 0 -8 12q-37 576 -56 576q-72 324 -172 708zM260 405l4 4h264q17 0 28 -184h-4l-284 8l-4 12z" />
<glyph unicode="j" horiz-adv-x="1411" d="M-312 1721v8l20 4q303 0 964 180q1575 344 2152 344h48q191 0 276 -80v-16q-27 -40 -324 -116q-79 -23 -312 -176q-56 -49 -56 -96q0 -33 40 -92v-4q0 -11 -244 -32l-24 -4q-72 66 -72 140q0 189 500 352v4q-84 20 -204 20h-56q-380 0 -1432 -272q-697 -176 -1072 -240 h-8q-98 0 -196 76zM-8 877q45 127 64 160l68 -4h40l168 -4l4 -4q-34 -160 -44 -160l-284 4h-8zM40 653v24q0 13 244 20q101 -376 288 -504q159 -132 336 -132q65 18 132 152q80 191 80 456v112q0 395 -140 1060h4l276 -8q24 0 32 -116q100 -622 100 -996v-108 q0 -554 -352 -660l-96 -8q-237 0 -568 188q-229 147 -324 428z" />
<glyph unicode="k" horiz-adv-x="1186" d="M-188 -585q0 209 328 704q160 256 592 908q82 134 136 256h-4q-203 -20 -380 -128q-48 -15 -116 -108q0 -56 100 -404l-4 -4h-184q-27 39 -132 428q-66 -20 -100 -20l-4 4v4q76 103 76 116q-116 504 -116 668l4 4h284q8 0 8 -12q0 -163 12 -308h4q36 88 72 208h4 q254 -20 284 -28q-72 -166 -192 -340v-40q0 -41 -12 -60h4q429 172 572 172h16q88 0 88 -56q0 -148 -532 -868q-163 -237 -412 -700q-104 -228 -104 -372q0 -82 44 -172l860 592l252 20v-4q-233 -242 -376 -352q-440 -352 -668 -352h-4l-276 4q-124 69 -124 216v24z" />
<glyph unicode="l" horiz-adv-x="980" d="M0 686q120 616 140 752q0 92 -60 388l4 4h4q324 -3 324 -8q0 -329 -120 -904l-28 -148q22 -56 36 -60l388 56q-99 203 -244 252v8h4l328 48q204 -251 204 -308q0 -38 -648 -108l-168 -8q-164 6 -164 36z" />
<glyph unicode="m" horiz-adv-x="1182" d="M0 1838l4 4l292 -12q2 -18 224 -248h4q578 918 620 968l304 60l4 -4q-476 -901 -476 -1652l-4 -180q0 -350 44 -660l-4 -4h-268l-8 8q-12 202 -12 376v108q0 716 168 1184v4h-4q-206 -337 -220 -472h-8l-244 -4l-140 192l64 -476l4 -64l-8 -48l-264 12q-8 15 -40 688 q-16 173 -32 220z" />
<glyph unicode="n" horiz-adv-x="1021" d="M0 700v4q28 76 28 120v16q0 18 72 20q165 0 172 -20v-128l-8 -8l-260 -8zM8 1248v60q6 528 28 528l264 8l300 -484h4v4l-4 80q0 275 172 596h224l8 -8q-124 -372 -124 -620q0 -189 120 -444h16l-8 -8l-4 4h-4l-336 -88q-364 608 -376 616v-4l-12 -468q-2 -32 -12 -32 l-244 8l-4 4v4z" />
<glyph unicode="o" horiz-adv-x="852" d="M0 1356q72 63 72 144q67 305 100 340q232 -6 232 -20l-48 -212h4q75 52 156 52q196 0 296 -120q16 -27 16 -48v-28q0 -209 -148 -1180q-14 -22 -44 -28q-70 13 -244 116zM292 1288l184 -472h4q68 532 68 704q0 44 -12 44q-69 -45 -116 -136q-25 -52 -36 -56l-72 36z" />
<glyph unicode="p" horiz-adv-x="1010" d="M0 1724q33 8 40 36q29 36 132 36q332 32 564 32h68q404 0 404 -116q0 -87 -224 -184q-167 -72 -468 -132l-200 -36q35 -157 120 -396v-4l-284 -12l-4 4l4 12q0 145 -152 760zM276 1628q0 -67 20 -184q230 31 564 216l44 40v8q0 48 -488 48l-132 -4l-8 -84v-40z" />
<glyph unicode="q" horiz-adv-x="1024" d="M0 1559v40q0 209 136 244l32 4q476 -17 476 -44q155 -128 224 -268q140 -249 140 -460q0 -190 -148 -376q-83 -76 -200 -76q-356 16 -356 40q-127 173 -200 344q-104 280 -104 552zM276 1603q0 -132 212 -824q21 -55 40 -80q252 180 252 404q0 176 -188 472 q-103 140 -196 172q-66 -15 -100 -60q-20 -44 -20 -76v-8z" />
<glyph unicode="r" horiz-adv-x="1461" d="M-1310 180v16q0 35 164 64q429 40 872 112l640 112l-4 28v44q-71 56 -548 376l-16 16v4q64 0 544 52l-20 384l-180 -24l-132 12v8l308 36q0 43 -28 224h4q99 -16 200 -20l100 16v-4l-12 -184q468 56 584 56q136 0 136 -68v-8q0 -75 -184 -184l-264 -164h4q370 64 520 64 h4q84 0 84 -76q0 -56 -160 -392q-228 -556 -228 -732q4 -44 16 -44q50 16 84 16l16 -16q0 -116 -172 -116l-40 -4q-180 0 -180 68l-4 24q46 360 88 452q284 613 284 668l4 24q0 44 -72 44l-76 4h-176q-41 0 -164 -72q-117 -56 -120 -64v-36l8 -264q238 -117 264 -148v-12 q0 -32 -236 -40l-4 -4v-4l16 -100l-240 -28l-4 4v92l-8 8q-1053 -148 -1316 -224l-4 -4v-4q13 -52 176 -164q259 -163 552 -256q299 -84 816 -200q92 -30 92 -48v-28q0 -40 -72 -140l-272 36v12q16 0 28 40q0 89 -320 172q-886 303 -1256 488q-96 66 -96 100zM-12 912 l352 -168v4q-4 144 -12 144q-118 0 -336 24h-4v-4zM552 1084q162 98 360 280q52 47 52 72l-24 8h-32q-139 0 -344 -28v-4z" />
<glyph unicode="s" horiz-adv-x="1681" d="M23 901v8l300 32q38 -128 336 -504q186 -213 264 -248q190 -135 404 -248q28 5 28 28q76 320 76 376v32q0 227 -272 468q-347 211 -896 512q-16 22 -16 40q0 71 164 256q60 96 344 684l4 4h4q308 -28 308 -48q-24 -146 -24 -268q0 -221 116 -564q24 -35 24 -52h-264 q-18 0 -72 216l-48 264h-4q-224 -374 -244 -480v-4q0 -40 224 -152q411 -223 616 -360q284 -177 284 -632q0 -309 -144 -408l-20 -4q-396 0 -580 132q-446 285 -912 920z" />
<glyph unicode="t" horiz-adv-x="1250" d="M0 1695q0 11 256 32l376 40v4q0 80 16 80h52l256 -8l4 -4v-4l-8 -36q618 52 836 52l140 -8v-4l-4 -4v-4h20v-8h-4q-563 -44 -1004 -100q-12 -64 -20 -216q0 -229 140 -632q100 -305 144 -548l-4 -4h-4l-272 -16l-4 12q0 290 -140 644q-136 493 -136 660l-8 56l-476 -84 l-136 56v8h28z" />
<glyph unicode="u" horiz-adv-x="811" d="M0 1527v32q0 144 68 268l292 -8v-8q-104 -146 -104 -300q0 -208 268 -604h4q24 162 24 272v76q0 188 -92 552q105 20 236 20h28l4 -4h4l-4 -20l44 -596l4 -188q0 -364 -20 -364l-284 -32q-472 503 -472 904z" />
<glyph unicode="v" horiz-adv-x="779" d="M0 1710l4 4h4l312 8q24 -63 68 -228h8q0 71 104 344h96l160 -4l4 -4q-68 -157 -112 -356q-40 -222 -104 -664l-280 -64v4l-24 260z" />
<glyph unicode="w" horiz-adv-x="1131" d="M0 1760l12 4l256 4l4 -4v-12q0 -325 76 -572h4q119 288 136 304q171 -68 260 -88h16q52 495 120 836q96 424 184 628h4q280 -8 280 -16q-209 -377 -312 -956q-32 -89 -52 -1044l-8 -168l-4 -4q-42 12 -84 12h-32q-44 0 -168 -44v4l12 32v16q0 72 -124 272h-4 q-51 -164 -68 -164l-272 -44q-69 114 -132 352q-104 485 -104 652zM720 500l4 4h4l264 12l36 -180l-4 -4h-4l-256 -16l-4 -4l-4 4l4 4v4q0 46 -40 176z" />
<glyph unicode="x" horiz-adv-x="1127" d="M0 1738v8l316 60l156 -260q62 245 108 292h112l220 -4v-4q-128 -120 -188 -236q-70 -140 -100 -336q103 -194 244 -392q105 -141 292 -352q0 -10 -224 -56h-8q-219 425 -348 596q-9 -84 -28 -84h-28l-244 -12l-4 4l108 352q-151 179 -384 424z" />
<glyph unicode="y" horiz-adv-x="1983" d="M-3014 995v20q0 233 448 308q131 20 264 20q817 0 2460 -540l116 -48q381 92 844 180q52 521 120 912h-4l-156 -32q-320 304 -328 384q-68 139 -68 320q5 144 20 144q288 -9 288 -16q-10 0 -16 -136q0 -363 216 -528q96 91 164 340q60 211 116 684l232 36l4 -4l4 -220 v-16q0 -401 -216 -800q-72 -322 -160 -1028l480 88l236 -44v-8h-48q-208 0 -676 -100q-60 -501 -60 -748v-96q0 -72 8 -120l-12 -4l-272 -8l-12 -4q-181 406 -840 716q-952 -224 -1508 -316q-258 -44 -516 -44q-840 0 -1096 564q-32 81 -32 144zM-2754 947q0 -208 328 -460 q249 -144 652 -144q625 0 1816 352q-144 80 -456 216q-246 104 -728 208q-683 132 -1212 132q-282 0 -380 -188q-20 -67 -20 -100v-16zM386 707q187 -99 328 -200q245 -198 320 -352h4q44 219 76 716z" />
<glyph unicode="z" horiz-adv-x="2446" d="M0 1232v24q0 203 516 508q398 277 792 640q70 81 72 104q0 20 -76 20h-80q-199 0 -656 -44v-4l100 -296q0 -8 -292 -12q-124 363 -124 388h28q0 12 24 12q933 20 1296 20h68q31 0 36 -16v-20q-26 -112 -372 -388q-533 -348 -888 -636q-240 -224 -240 -260 q-52 -65 -52 -112l1752 -840q-613 685 -680 840q26 12 232 52q274 -393 588 -768q261 -291 360 -356l60 -44l-324 -44q-380 260 -888 480l-896 400q-169 80 -280 180q-76 82 -76 172zM1104 1488l4 4l208 4h72l8 -8l12 -236l-4 -4h-36l-248 -4l-4 4v4z" />
<glyph unicode="{" d="M240 638v60q172 5 223 71t51 133v468q0 74 77 141.5t185 67.5h108v-50h-90q-61 0 -107 -33.5t-47 -91.5v-500q0 -83 -60.5 -158.5t-142.5 -76.5v-2q82 -1 143 -76t61 -158l-1 -500q1 -58 47 -91.5t107 -33.5h90v-50h-108q-108 0 -184.5 67.5t-77.5 141.5v468 q0 66 -51 132t-223 71z" />
<glyph unicode="|" d="M427 -418v1995h160v-1995h-160z" />
<glyph unicode="}" d="M130 -192h90q61 0 107 33.5t47 91.5l-1 500q0 83 61 158t144 76v2q-83 1 -143.5 76.5t-60.5 158.5v500q-1 58 -47 91.5t-107 33.5h-90v50h108q108 0 185 -67.5t77 -141.5v-468q0 -67 51 -133t223 -71v-60q-172 -5 -223 -71t-51 -132v-468q-1 -74 -77.5 -141.5 t-184.5 -67.5h-108v50z" />
<glyph unicode="~" d="M94 556v156q64 73 123 99t114 26q64 0 181.5 -49.5t172.5 -49.5q52 0 108.5 28t129.5 112v-156q-63 -72 -122 -97.5t-116 -25.5q-60 0 -177.5 48.5t-176.5 48.5q-51 0 -107.5 -28t-129.5 -112z" />
<glyph unicode="&#xa1;" horiz-adv-x="672" />
<glyph unicode="&#xa2;" horiz-adv-x="1139" />
<glyph unicode="&#xa3;" d="M76 673v60h135q-58 143 -58 253q0 226 123.5 347t306.5 121h4q75 0 185.5 -14t110.5 -34v-161h-58q-5 61 -77 102q-72 31 -160 31h-2q-100 0 -190 -101q-84 -93 -84 -241q0 -15 1 -30q0 -135 53 -273h360v-60h-334q14 -30 31 -60q35 -63 35 -138q0 -161 -162 -375h402 q130 0 189 132l49 -1l-103 -231h-719l1 50q187 238 187 418q0 77 -34 143q-17 32 -31 62h-161z" />
<glyph unicode="&#xa4;" d="M122 413l118 117q-32 46 -48 103q-12 42 -12 84q0 44 13 87q16 55 47 99l-118 118l80 81l118 -118q44 30 99 46q44 14 89 14q41 0 83 -12q57 -17 102 -48l118 118l80 -81l-117 -117q31 -46 48 -102q12 -42 12 -85q0 -42 -12 -85q-17 -56 -48 -102l117 -117l-80 -81 l-118 118q-45 -32 -101 -48q-42 -12 -85 -12q-42 0 -85 12q-57 16 -102 48l-118 -118zM284 716q0 -28 9 -56q16 -59 57 -100q41 -40 99 -57q29 -8 58 -8t58 8q58 17 99 57q40 41 57 99q9 29 9 58t-9 58q-17 58 -57 99q-41 40 -100 57q-29 8 -58 8t-58 -9q-58 -17 -98 -56 q-39 -40 -56 -98q-10 -30 -10 -60z" />
<glyph unicode="&#xa5;" horiz-adv-x="1262" d="M8 1176q0 19 10.5 27.5t32.5 8.5q27 0 123 -8t164 -8h88q33 0 41 -6.5t8 -26.5q0 -8 -15 -14t-38 -6q-6 0 -18.5 2t-18.5 2q-24 0 -37.5 -9.5t-13.5 -25.5q0 -18 16.5 -52t46.5 -77l158 -221q13 -19 33 -53q41 -70 71 -70q9 0 16.5 5t14.5 15l277 396q8 12 13 26.5 t5 24.5q0 18 -10 27t-37 14q-15 2 -41 4q-47 3 -47 25q0 15 8 22.5t25 7.5q3 0 15 -1q56 -7 108 -7h139q30 0 65 1t37 1q11 0 18.5 -4.5t8.5 -11.5q0 -28 -38 -34q-18 -3 -27 -5q-63 -15 -147 -117q-7 -9 -12 -15l-169 -206h323q15 0 24 -6t9 -17q0 -15 -6 -20.5t-23 -5.5 h-366q-46 -57 -96.5 -112.5t-52.5 -59.5h511q18 0 25.5 -5.5t7.5 -17.5q0 -14 -7 -21t-22 -7h-530q0 -11 -1 -30.5t-1 -29.5l2 -215q0 -114 5.5 -150t20.5 -44q30 -17 107.5 -19t77.5 -31q0 -12 -10 -20t-25 -8q-2 0 -35.5 4t-64.5 4q-91 0 -208.5 -4t-142.5 -4q-31 0 -40 4 t-9 16t8 18.5t37 12.5q9 2 25 5q74 16 92 32q17 13 24 47t7 102l-2 242q0 19 -1.5 35t-4.5 32l-484 1q-14 0 -21 6.5t-7 19.5t6.5 19t21.5 6h467l-121 172h-344q-17 0 -23.5 5.5t-6.5 18.5q0 14 6 19.5t22 5.5h307q-43 57 -108 155q-131 197 -227 197q-7 0 -13 5.5t-6 11.5z " />
<glyph unicode="&#xa6;" d="M427 371h160v-789h-160v789zM427 789v789h160v-789h-160z" />
<glyph unicode="&#xa7;" d="M170 1130q0 148 89 237q82 79 216 86q8 1 17 1h3q66 0 163 -16.5t97 -41.5v-194h-51q-5 81 -80 132q-70 47 -149 51h-15q-78 0 -125 -44.5t-47 -117.5q0 -132 287 -269q149 -67 204.5 -143.5t55.5 -187.5q0 -171 -101 -282q-47 -39 -99 -64q108 -56 154 -118 q55 -77 55 -187q0 -171 -101 -283q-124 -102 -277 -105v1q-6 -1 -13 -1h-3q-66 0 -163 16.5t-97 41.5v194h51q5 -81 80 -132q68 -45 145 -50q113 6 185 69q72 64 72 165q0 125 -316 276q-123 64 -175.5 137t-52.5 177q0 148 89 237q67 65 170 82l-40 19q-123 64 -175.5 137 t-52.5 177zM297 571q0 -123 248 -250q56 16 97 53q73 65 73 166q0 5 -1 10h-2q-1 14 -4 27q-22 61 -113 127q-59 29 -126 29q-78 0 -125 -44.5t-47 -117.5z" />
<glyph unicode="&#xa8;" horiz-adv-x="1024" d="M209 1263q0 13 14 26l71 72q13 12 25 12q11 0 27 -14l69 -73q10 -14 10 -25q0 -13 -12 -27l-69 -75q-17 -17 -25 -17q-14 0 -25 12l-76 86q-9 12 -9 23zM574 1263q0 13 14 26l71 72q13 12 25 12q11 0 27 -13l69 -74q10 -14 10 -25q0 -13 -12 -26l-69 -76q-17 -17 -25 -17 q-14 0 -25 12l-76 87q-9 11 -9 22z" />
<glyph unicode="&#xa9;" horiz-adv-x="1674" d="M100 718q0 148 55.5 283t159.5 238q102 104 238.5 160.5t286.5 56.5q145 0 280 -56.5t239 -160.5q102 -101 158.5 -238t56.5 -283q0 -147 -56.5 -282t-162.5 -240q-105 -105 -239 -159.5t-283 -54.5q-146 0 -278 55.5t-238 160.5q-106 104 -161.5 237.5t-55.5 282.5z M160 718q0 -137 51 -259t148 -219q98 -96 219 -147t256 -51q137 0 259.5 50.5t219.5 145.5q97 98 149 221.5t52 258.5q0 134 -52 259.5t-145 219.5q-96 96 -220 147.5t-258 51.5q-137 0 -262 -51.5t-220 -147.5t-146 -219.5t-51 -259.5zM351 719q0 126 65.5 244t187.5 184.5 t254 66.5q38 0 75 -6.5t76 -20.5q5 -1 9 -1q19 0 26 30h42l72 -198h-44q-52 94 -131 124q-72 26 -147 26h-15q-86 -8 -166.5 -71t-121.5 -177q-33 -90 -33 -184q0 -25 2 -50q11 -121 69.5 -224t149.5 -152q72 -40 166 -42q124 0 194 56t70 126h53v-100q0 -46 -96.5 -86.5 t-242.5 -40.5q-142 0 -264 68t-186 185t-64 243z" />
<glyph unicode="&#xaa;" horiz-adv-x="648" />
<glyph unicode="&#xab;" horiz-adv-x="944" d="M174 479l342 303h14v-37l-205 -266l205 -266v-37h-14zM487 479l342 303h14v-37l-205 -266l205 -266v-37h-14z" />
<glyph unicode="&#xac;" d="M87 667v100h840v-491l-1 -1h-98v392h-741z" />
<glyph unicode="&#xad;" horiz-adv-x="670" d="M116 437v83q0 29 41 29h356q41 0 41 -29v-83q0 -28 -40 -28h-358q-40 0 -40 28z" />
<glyph unicode="&#xae;" horiz-adv-x="1674" d="M100 718q0 148 55.5 283t159.5 238q102 104 238.5 160.5t286.5 56.5q145 0 280 -56.5t239 -160.5q102 -101 158.5 -238t56.5 -283q0 -147 -56.5 -282t-162.5 -240q-105 -105 -239 -159.5t-283 -54.5q-146 0 -278 55.5t-238 160.5q-106 104 -161.5 237.5t-55.5 282.5z M160 718q0 -137 51 -259t148 -219q98 -96 219 -147t256 -51q137 0 259.5 50.5t219.5 145.5q97 98 149 221.5t52 258.5q0 134 -52 259.5t-145 219.5q-96 96 -220 147.5t-258 51.5q-137 0 -262 -51.5t-220 -147.5t-146 -219.5t-51 -259.5zM524 269v50h43q37 0 37 121v538 q0 121 -37 121h-43v70h356q64 -1 125 -42q60 -41 92.5 -114t32.5 -152q0 -78 -32 -150.5t-114 -134.5l82 -116q100 -141 150 -141h34v-50h-346v50h45q30 0 30 22q0 29 -69 114l-75 102q-42 0 -84 42v-159q0 -121 36 -121h53v-50h-316zM751 725l3 -8q23 -56 56 -81 q29 -22 56 -22h6q31 4 61.5 38.5t46.5 97.5q13 50 13 103q0 13 -1 27q-4 67 -28 124.5t-56.5 76t-63.5 18.5h-93v-374z" />
<glyph unicode="&#xaf;" horiz-adv-x="670" />
<glyph unicode="&#xb0;" horiz-adv-x="674" d="M60 1164q0 116 81.5 197t197.5 81q115 0 196 -81.5t81 -196.5q0 -114 -82 -196t-197 -82q-117 0 -197 81t-80 197zM130 1163q0 -87 61 -147t148 -60t147 60t60 147t-60.5 148t-146.5 61t-147.5 -61t-61.5 -148z" />
<glyph unicode="&#xb1;" />
<glyph unicode="&#xb2;" />
<glyph unicode="&#xb3;" />
<glyph unicode="&#xb4;" horiz-adv-x="1024" d="M316 1078l291 297q35 35 55.5 47t40.5 12q33 0 53.5 -20t20.5 -51q0 -22 -15.5 -42t-46.5 -40l-330 -203h-69z" />
<glyph unicode="&#xb5;" horiz-adv-x="1180" />
<glyph unicode="&#xb6;" horiz-adv-x="1024" d="M93 1086q0 157 107.5 253t285.5 96h443v-70h-127v-1365h-82v1365h-166v-1365h-84v738q-174 8 -275.5 102.5t-101.5 245.5z" />
<glyph unicode="&#xb7;" horiz-adv-x="508" d="M129 709q0 15 16 31l82 84q15 14 29 14q13 0 31 -16l80 -86q12 -16 12 -29q0 -15 -14 -31l-80 -88q-20 -20 -29 -20q-16 0 -29 14l-88 101q-10 13 -10 26z" />
<glyph unicode="&#xb8;" horiz-adv-x="1024" d="M360 -290q85 -52 152 -52q66 0 94.5 21.5t28.5 66.5t-49 64q-40 16 -102 16q-16 0 -34 -2l48 176h63l-37 -104q32 4 62 5q86 0 134 -40.5t48 -113.5q0 -76 -58.5 -120.5t-160.5 -44.5q-109 0 -189 32v96z" />
<glyph unicode="&#xb9;" />
<glyph unicode="&#xba;" horiz-adv-x="718" />
<glyph unicode="&#xbb;" horiz-adv-x="944" d="M101 176v37l205 266l-205 266v37h14l342 -303l-342 -303h-14zM414 176v37l205 266l-205 266v37h14l342 -303l-342 -303h-14z" />
<glyph unicode="&#xbc;" horiz-adv-x="1708" />
<glyph unicode="&#xbd;" horiz-adv-x="1964" />
<glyph unicode="&#xbe;" horiz-adv-x="1708" />
<glyph unicode="&#xbf;" horiz-adv-x="748" />
<glyph unicode="&#xc0;" horiz-adv-x="1540" />
<glyph unicode="&#xc1;" horiz-adv-x="1540" />
<glyph unicode="&#xc2;" horiz-adv-x="1540" />
<glyph unicode="&#xc3;" horiz-adv-x="1540" />
<glyph unicode="&#xc4;" horiz-adv-x="1540" />
<glyph unicode="&#xc5;" horiz-adv-x="1540" />
<glyph unicode="&#xc6;" horiz-adv-x="2118" />
<glyph unicode="&#xc7;" horiz-adv-x="1399" />
<glyph unicode="&#xc8;" horiz-adv-x="1151" />
<glyph unicode="&#xc9;" horiz-adv-x="1151" />
<glyph unicode="&#xca;" horiz-adv-x="1151" />
<glyph unicode="&#xcb;" horiz-adv-x="1151" />
<glyph unicode="&#xcc;" horiz-adv-x="657" />
<glyph unicode="&#xcd;" horiz-adv-x="657" />
<glyph unicode="&#xce;" horiz-adv-x="657" />
<glyph unicode="&#xcf;" horiz-adv-x="657" />
<glyph unicode="&#xd0;" horiz-adv-x="1518" />
<glyph unicode="&#xd1;" horiz-adv-x="1554" />
<glyph unicode="&#xd2;" horiz-adv-x="1614" />
<glyph unicode="&#xd3;" horiz-adv-x="1614" />
<glyph unicode="&#xd4;" horiz-adv-x="1614" />
<glyph unicode="&#xd5;" horiz-adv-x="1614" />
<glyph unicode="&#xd6;" horiz-adv-x="1614" />
<glyph unicode="&#xd7;" d="M161 470l247 247l-247 248l99 98l247 -247l248 247l98 -99l-247 -247l247 -247l-99 -99l-247 247l-247 -247z" />
<glyph unicode="&#xd8;" horiz-adv-x="1614" />
<glyph unicode="&#xd9;" horiz-adv-x="1501" />
<glyph unicode="&#xda;" horiz-adv-x="1501" />
<glyph unicode="&#xdb;" horiz-adv-x="1501" />
<glyph unicode="&#xdc;" horiz-adv-x="1501" />
<glyph unicode="&#xdd;" horiz-adv-x="1233" />
<glyph unicode="&#xde;" horiz-adv-x="1120" />
<glyph unicode="&#xdf;" horiz-adv-x="1251" />
<glyph unicode="&#xe0;" horiz-adv-x="922" />
<glyph unicode="&#xe1;" horiz-adv-x="922" />
<glyph unicode="&#xe2;" horiz-adv-x="922" />
<glyph unicode="&#xe3;" horiz-adv-x="922" />
<glyph unicode="&#xe4;" horiz-adv-x="922" />
<glyph unicode="&#xe5;" horiz-adv-x="922" />
<glyph unicode="&#xe6;" horiz-adv-x="1454" />
<glyph unicode="&#xe7;" horiz-adv-x="905" />
<glyph unicode="&#xe8;" horiz-adv-x="909" />
<glyph unicode="&#xe9;" horiz-adv-x="909" />
<glyph unicode="&#xea;" horiz-adv-x="909" />
<glyph unicode="&#xeb;" horiz-adv-x="909" />
<glyph unicode="&#xec;" horiz-adv-x="514" />
<glyph unicode="&#xed;" horiz-adv-x="514" />
<glyph unicode="&#xee;" horiz-adv-x="514" />
<glyph unicode="&#xef;" horiz-adv-x="514" />
<glyph unicode="&#xf0;" horiz-adv-x="1139" />
<glyph unicode="&#xf1;" horiz-adv-x="1108" />
<glyph unicode="&#xf2;" horiz-adv-x="1010" />
<glyph unicode="&#xf3;" horiz-adv-x="1010" />
<glyph unicode="&#xf4;" horiz-adv-x="1010" />
<glyph unicode="&#xf5;" horiz-adv-x="1010" />
<glyph unicode="&#xf6;" horiz-adv-x="1010" />
<glyph unicode="&#xf7;" d="M87 647v140h839l1 -1v-139h-840zM382 377q0 15 16 31l82 84q15 14 29 14q13 0 31 -16l80 -86q12 -16 12 -29q0 -15 -14 -31l-80 -88q-20 -20 -29 -20q-16 0 -29 14l-88 101q-10 13 -10 26zM382 1070q0 15 16 31l82 84q15 14 29 14q13 0 31 -16l80 -86q12 -16 12 -29 q0 -15 -14 -31l-80 -88q-20 -20 -29 -20q-16 0 -29 14l-88 101q-10 13 -10 26z" />
<glyph unicode="&#xf8;" horiz-adv-x="1010" />
<glyph unicode="&#xf9;" horiz-adv-x="1059" />
<glyph unicode="&#xfa;" horiz-adv-x="1059" />
<glyph unicode="&#xfb;" horiz-adv-x="1059" />
<glyph unicode="&#xfc;" horiz-adv-x="1059" />
<glyph unicode="&#xfd;" horiz-adv-x="868" />
<glyph unicode="&#xfe;" horiz-adv-x="1010" />
<glyph unicode="&#xff;" horiz-adv-x="868" />
<glyph unicode="&#x2c6;" horiz-adv-x="1024" d="M221 1079l232 355h118l232 -355h-58l-233 216l-233 -216h-58z" />
<glyph unicode="&#x2dc;" horiz-adv-x="1024" d="M234 1132q19 106 68 158.5t129 52.5q46 -1 113 -24q64 -23 112 -23h4q36 0 58 20t36 66h54q-20 -103 -68.5 -154t-126.5 -51h-4q-50 0 -113 23q-66 24 -114 24q-39 0 -60.5 -20.5t-33.5 -71.5h-54z" />
<glyph unicode="&#x2000;" horiz-adv-x="1521" />
<glyph unicode="&#x2001;" horiz-adv-x="3043" />
<glyph unicode="&#x2002;" horiz-adv-x="1521" />
<glyph unicode="&#x2003;" horiz-adv-x="3043" />
<glyph unicode="&#x2004;" />
<glyph unicode="&#x2005;" horiz-adv-x="760" />
<glyph unicode="&#x2006;" horiz-adv-x="507" />
<glyph unicode="&#x2007;" horiz-adv-x="507" />
<glyph unicode="&#x2008;" horiz-adv-x="380" />
<glyph unicode="&#x2009;" horiz-adv-x="608" />
<glyph unicode="&#x200a;" horiz-adv-x="169" />
<glyph unicode="&#x2010;" horiz-adv-x="670" d="M116 437v83q0 29 41 29h356q41 0 41 -29v-83q0 -28 -40 -28h-358q-40 0 -40 28z" />
<glyph unicode="&#x2011;" horiz-adv-x="670" d="M116 437v83q0 29 41 29h356q41 0 41 -29v-83q0 -28 -40 -28h-358q-40 0 -40 28z" />
<glyph unicode="&#x2012;" horiz-adv-x="670" d="M116 437v83q0 29 41 29h356q41 0 41 -29v-83q0 -28 -40 -28h-358q-40 0 -40 28z" />
<glyph unicode="&#x2013;" horiz-adv-x="1108" d="M56 419v120h996v-120h-996z" />
<glyph unicode="&#x2014;" horiz-adv-x="2048" d="M0 419v120h2048v-120h-2048z" />
<glyph unicode="&#x2018;" horiz-adv-x="557" d="M186 1233q0 109 71 226.5t139 117.5v-43q-73 -43 -87 -190q0 -119 129 -161v-42l-119 -125q-44 0 -88.5 65.5t-44.5 151.5z" />
<glyph unicode="&#x2019;" horiz-adv-x="557" d="M119 1410v42l119 125q44 0 88.5 -65.5t44.5 -151.5q0 -109 -71 -226.5t-139 -117.5v43q73 43 87 190q0 119 -129 161z" />
<glyph unicode="&#x201a;" horiz-adv-x="557" d="M119 114v42l119 125q44 0 88.5 -65.5t44.5 -151.5q0 -109 -71 -226.5t-139 -117.5v43q73 43 87 190q0 119 -129 161z" />
<glyph unicode="&#x201c;" horiz-adv-x="910" d="M186 1233q0 109 71 226.5t139 117.5v-43q-73 -43 -87 -190q0 -119 129 -161v-42l-119 -125q-44 0 -88.5 65.5t-44.5 151.5zM539 1233q0 109 71 226.5t139 117.5v-43q-73 -43 -87 -190q0 -119 129 -161v-42l-119 -125q-44 0 -88.5 65.5t-44.5 151.5z" />
<glyph unicode="&#x201d;" horiz-adv-x="910" d="M119 1410v42l119 125q44 0 88.5 -65.5t44.5 -151.5q0 -109 -71 -226.5t-139 -117.5v43q73 43 87 190q0 119 -129 161zM472 1410v42l119 125q44 0 88.5 -65.5t44.5 -151.5q0 -109 -71 -226.5t-139 -117.5v43q73 43 87 190q0 119 -129 161z" />
<glyph unicode="&#x201e;" horiz-adv-x="910" d="M119 114v42l119 125q44 0 88.5 -65.5t44.5 -151.5q0 -109 -71 -226.5t-139 -117.5v43q73 43 87 190q0 119 -129 161zM472 114v42l119 125q44 0 88.5 -65.5t44.5 -151.5q0 -109 -71 -226.5t-139 -117.5v43q73 43 87 190q0 119 -129 161z" />
<glyph unicode="&#x2022;" horiz-adv-x="1024" d="M216 718q0 123 87 209t210 86q122 0 208.5 -86.5t86.5 -208.5t-87.5 -209.5t-209.5 -87.5q-123 0 -209 87t-86 210z" />
<glyph unicode="&#x2026;" horiz-adv-x="2048" d="M129 136q0 15 16 31l82 84q15 14 29 14q13 0 31 -16l80 -86q12 -16 12 -29q0 -15 -14 -31l-80 -88q-20 -20 -29 -20q-16 0 -29 14l-88 101q-10 13 -10 26zM812 136q0 15 16 31l82 84q15 14 29 14q13 0 31 -16l80 -86q12 -16 12 -29q0 -15 -14 -31l-80 -88 q-20 -20 -29 -20q-16 0 -29 14l-88 101q-10 13 -10 26zM1495 136q0 15 16 31l82 84q15 14 29 14q13 0 31 -16l80 -86q12 -16 12 -29q0 -15 -14 -31l-80 -88q-20 -20 -29 -20q-16 0 -29 14l-88 101q-10 13 -10 26z" />
<glyph unicode="&#x202f;" horiz-adv-x="608" />
<glyph unicode="&#x2039;" horiz-adv-x="631" d="M174 479l342 303h14v-37l-205 -266l205 -266v-37h-14z" />
<glyph unicode="&#x203a;" horiz-adv-x="631" d="M101 176v37l205 266l-205 266v37h14l342 -303l-342 -303h-14z" />
<glyph unicode="&#x205f;" horiz-adv-x="760" />
<glyph unicode="&#x20ac;" d="M-44 653l17 60h87v29q0 16 1 31h-71l17 60h58q14 145 76 281q81 178 226 274t298 96q43 0 87 -8q40 -10 82 -29q8 -6 16 -6q20 0 34 45h41l84 -281l-40 -1q-49 134 -138 178q-43 22 -81 32v3q-50 16 -101 16q-17 0 -34 -2q-120 -12 -226 -113.5t-157 -273.5 q-32 -104 -39 -211h706l-17 -60h-692q0 -30 2 -60h674l-17 -60h-652q17 -158 83 -298q74 -157 193 -236q102 -68 216 -69q186 3 256 91q74 91 74 185h48v-143q0 -70 -111 -127q-105 -54 -267 -56q-181 0 -325.5 98t-223.5 274q-62 135 -76 281h-108z" />
<glyph unicode="&#x2122;" horiz-adv-x="1497" />
<glyph unicode="&#x25fc;" horiz-adv-x="1840" d="M0 0v1840h1840v-1840h-1840z" />
</font>
</defs>
</svg>
